<?xml version="1.0" encoding="utf-8"?>
<!-- Generator: Adobe Illustrator 19.2.0, SVG Export Plug-In . SVG Version: 6.00 Build 0)  -->
<svg version="1.1" id="Camada_1" xmlns="http://www.w3.org/2000/svg" xmlns:xlink="http://www.w3.org/1999/xlink" x="0px" y="0px"
	 viewBox="0 0 237.5 276.4" style="enable-background:new 0 0 237.5 276.4;" xml:space="preserve">
<style type="text/css">
	.st0{fill:#265D9F;}
	.st1{fill:#D78728;}
	.st2{fill:#FFFFFF;}
	.st3{fill:#3FAC49;}
	.st4{fill:#F59121;}
	.st5{fill:#363221;}
</style>
<path class="st0" d="M221.5,139.9l-194.7,4.3c0,0,3.1,38.3,98.2,38.5C125.1,182.7,216.7,179.5,221.5,139.9"/>
<path class="st1" d="M25.8,60.4L220.5,57c0,0-3.2-54-98.4-55.6C122.1,1.3,30.5,4.6,25.8,60.4"/>
<rect x="112.7" y="21.6" transform="matrix(8.726681e-003 -1 1 8.726681e-003 -4.4352 241.0244)" class="st2" width="13.4" height="202.2"/>
<rect x="27.7" y="71.2" transform="matrix(0.9998 -1.745392e-002 1.745392e-002 0.9998 -1.4877 2.2695)" class="st3" width="203.1" height="30.3"/>
<path class="st4" d="M79.7,36.3c1.1,0,2-0.9,2-2c0-1.1-0.9-2-2-2c-1.1,0-2,0.9-2,2C77.7,35.4,78.6,36.3,79.7,36.3"/>
<path class="st4" d="M106.4,15.9c1.3,0,2.4-1.1,2.4-2.4c0-1.3-1.1-2.4-2.4-2.4c-1.3,0-2.4,1.1-2.4,2.4
	C103.9,14.9,105,15.9,106.4,15.9"/>
<path class="st4" d="M128,28.4c1,0,1.9-0.8,1.9-1.9c0-1-0.8-1.9-1.9-1.9c-1,0-1.9,0.8-1.9,1.9C126.1,27.5,127,28.4,128,28.4"/>
<path class="st4" d="M140,20.7c1,0,1.9-0.8,1.9-1.9c0-1-0.8-1.9-1.9-1.9c-1,0-1.9,0.8-1.9,1.9C138.1,19.9,139,20.7,140,20.7"/>
<path class="st4" d="M170.9,40.8c1,0,1.9-0.8,1.9-1.9c0-1-0.8-1.9-1.9-1.9c-1,0-1.9,0.8-1.9,1.9C169,40,169.9,40.8,170.9,40.8"/>
<path class="st4" d="M172.7,22.1c1,0,1.9-0.6,1.9-1.4c0-0.8-0.8-1.4-1.9-1.4s-1.9,0.6-1.9,1.4C170.9,21.4,171.7,22.1,172.7,22.1"/>
<path class="st4" d="M109.7,30.2c1.4,0,2.6-1.2,2.6-2.6c0-1.4-1.2-2.6-2.6-2.6c-1.4,0-2.6,1.2-2.6,2.6
	C107.1,29.1,108.3,30.2,109.7,30.2"/>
<path class="st4" d="M199,47.7c0.9,0,1.6-0.7,1.6-1.6c0-0.9-0.7-1.6-1.6-1.6c-0.9,0-1.6,0.7-1.6,1.6C197.5,47,198.1,47.7,199,47.7"
	/>
<path class="st4" d="M141.8,36.5c1.2,0,2.3-1,2.3-2.3c0-1.2-1-2.3-2.3-2.3c-1.2,0-2.3,1-2.3,2.3C139.6,35.5,140.6,36.5,141.8,36.5"
	/>
<path class="st4" d="M148.7,13.5c1.3,0,2.4-1.1,2.4-2.4c0-1.3-1.1-2.4-2.4-2.4c-1.3,0-2.4,1.1-2.4,2.4
	C146.3,12.4,147.4,13.5,148.7,13.5"/>
<path class="st4" d="M60.9,43.9c1.3,0,2.3-1,2.3-2.3c0-1.3-1-2.3-2.3-2.3c-1.3,0-2.3,1-2.3,2.3C58.6,42.9,59.6,43.9,60.9,43.9"/>
<path class="st4" d="M186.6,33.3c1.3,0,2.4-1.1,2.4-2.4c0-1.3-1.1-2.4-2.4-2.4c-1.3,0-2.4,1.1-2.4,2.4
	C184.2,32.2,185.3,33.3,186.6,33.3"/>
<path class="st4" d="M72.5,24.4c0.9,0,1.7-0.7,1.7-1.6c0-0.9-0.7-1.6-1.7-1.6c-0.9,0-1.7,0.7-1.7,1.6C70.8,23.7,71.6,24.4,72.5,24.4
	"/>
<path class="st4" d="M96.4,44.7c0.9,0,1.7-0.7,1.7-1.5c0-0.8-0.7-1.5-1.7-1.5c-0.9,0-1.7,0.7-1.7,1.5C94.7,44,95.5,44.7,96.4,44.7"
	/>
<path class="st4" d="M150.4,42.4c0.9,0,1.7-0.8,1.7-1.7c0-1-0.7-1.7-1.7-1.7c-0.9,0-1.7,0.8-1.7,1.7
	C148.7,41.6,149.5,42.4,150.4,42.4"/>
<path class="st4" d="M126.3,15c0.9,0,1.7-0.7,1.7-1.5c0-0.8-0.7-1.5-1.7-1.5c-0.9,0-1.7,0.7-1.7,1.5C124.6,14.4,125.4,15,126.3,15"
	/>
<path class="st4" d="M94.7,22.9c0.9,0,1.7-0.8,1.7-1.7c0-0.9-0.7-1.7-1.7-1.7c-0.9,0-1.7,0.8-1.7,1.7C93,22.2,93.8,22.9,94.7,22.9"
	/>
<path class="st4" d="M54.5,28.4c0.9,0,1.7-0.9,1.7-1.9s-0.7-1.9-1.7-1.9c-0.9,0-1.7,0.9-1.7,1.9S53.6,28.4,54.5,28.4"/>
<path class="st4" d="M163.8,26.4c0.9,0,1.7-0.8,1.7-1.8c0-1-0.7-1.8-1.7-1.8c-0.9,0-1.7,0.8-1.7,1.8
	C162.2,25.6,162.9,26.4,163.8,26.4"/>
<g>
	<path class="st2" d="M33.1,231.6c-2.7,0-4.1-1.2-4.1-3.6v-20.8c0-2.4,1.4-3.6,4.1-3.6H43c2.1,0,3.2,1.1,3.2,3.3s-1.1,3.3-3.2,3.3
		h-5.8v4h5c2.1,0,3.2,1.1,3.2,3.3c0,2.2-1.1,3.3-3.2,3.3h-5v7.1C37.2,230.4,35.8,231.6,33.1,231.6z"/>
	<path class="st2" d="M56.7,226.6l-0.8,2.1c-0.7,1.9-1.9,2.8-3.5,2.8s-2.8-0.5-3.5-1.5c-0.7-1-1-1.9-1-2.7s0.2-1.6,0.5-2.3l8.5-18.7
		c0.9-1.9,2.2-2.8,3.9-2.8s3.1,0.9,3.9,2.8l8.6,18.7c0.4,0.8,0.5,1.6,0.5,2.3c0,0.8-0.3,1.7-1,2.7c-0.7,1-1.8,1.5-3.5,1.5
		c-1.6,0-2.8-0.9-3.5-2.8l-0.8-2.1H56.7z M62.7,220l-1.8-4.8l-1.8,4.8H62.7z"/>
	<path class="st2" d="M86.9,231.7c-2.7,0-5.2-0.4-7.7-1.3c-2.5-0.8-3.7-2.3-3.7-4.5s1-3.3,2.9-3.3c0.3,0,1.4,0.4,3.5,1.1
		s3.8,1.1,5.2,1.1c1.5,0,2.2-0.6,2.2-1.9c0-0.8-0.5-1.5-1.5-2s-2.4-1.1-4.2-1.7c-1.8-0.6-2.9-1-3.4-1.3c-2.1-1.4-3.1-3.4-3.1-6.1
		c0-2.7,0.9-4.8,2.6-6.5c1.7-1.6,3.7-2.4,6.1-2.4c2.3,0,4.4,0.3,6.1,0.8c3.2,1,4.5,2.5,3.9,4.5c-0.6,2-1.8,2.9-3.4,2.8
		c-0.2,0-1-0.3-2.5-0.8c-1.5-0.6-2.8-0.8-4-0.8c-1.2,0-1.8,0.6-1.8,1.7c0,0.7,0.5,1.4,1.5,1.9c1,0.5,2.4,1.1,4.2,1.7
		s2.9,1.1,3.4,1.4c2.1,1.4,3.2,3.6,3.2,6.4c0,2.8-0.9,5.1-2.7,6.7C91.8,230.9,89.6,231.7,86.9,231.7z"/>
	<path class="st2" d="M113.4,210.2V228c0,2.4-1.4,3.6-4.1,3.6c-2.7,0-4.1-1.2-4.1-3.6v-17.8H101c-2.2,0-3.3-1.1-3.3-3.3
		s1.1-3.3,3.3-3.3h16.5c2.2,0,3.3,1.1,3.3,3.3s-1.1,3.3-3.3,3.3H113.4z"/>
	<path class="st2" d="M137,231.6c-2.7,0-4.1-1.2-4.1-3.6v-20.8c0-2.4,1.4-3.6,4.1-3.6h9.9c2.1,0,3.2,1.1,3.2,3.3s-1.1,3.3-3.2,3.3
		h-5.8v4h5c2.1,0,3.2,1.1,3.2,3.3c0,2.2-1.1,3.3-3.2,3.3h-5v7.1C141.1,230.4,139.7,231.6,137,231.6z"/>
	<path class="st2" d="M181.5,217.3c0,4.3-1.4,7.8-4.2,10.5c-2.8,2.7-6.4,4-10.6,4s-7.8-1.3-10.6-4c-2.8-2.7-4.2-6.2-4.2-10.5
		c0-4.3,1.4-7.8,4.1-10.5c2.8-2.7,6.3-4,10.7-4s7.9,1.3,10.7,4C180.1,209.5,181.5,213,181.5,217.3z M171.7,212.1
		c-1.2-1.4-2.9-2.1-5-2.1c-2.1,0-3.7,0.7-5,2.1c-1.3,1.4-1.9,3.1-1.9,5.2c0,2.1,0.6,3.8,1.9,5.2c1.3,1.4,2.9,2,5,2s3.7-0.7,5-2.1
		s1.9-3.1,1.9-5.2C173.5,215.2,172.9,213.5,171.7,212.1z"/>
	<path class="st2" d="M212.6,217.3c0,4.3-1.4,7.8-4.2,10.5c-2.8,2.7-6.4,4-10.6,4s-7.8-1.3-10.6-4c-2.8-2.7-4.2-6.2-4.2-10.5
		c0-4.3,1.4-7.8,4.1-10.5c2.8-2.7,6.3-4,10.7-4s7.9,1.3,10.7,4C211.2,209.5,212.6,213,212.6,217.3z M202.7,212.1
		c-1.2-1.4-2.9-2.1-5-2.1c-2.1,0-3.7,0.7-5,2.1c-1.3,1.4-1.9,3.1-1.9,5.2c0,2.1,0.6,3.8,1.9,5.2c1.3,1.4,2.9,2,5,2s3.7-0.7,5-2.1
		s1.9-3.1,1.9-5.2C204.6,215.2,204,213.5,202.7,212.1z"/>
	<path class="st2" d="M226.7,231.6h-8.3c-2.7,0-4.1-1.2-4.1-3.6v-20.8c0-2.4,1.4-3.6,4.1-3.6h8.3c4.6,0.5,7.7,3.1,9.4,7.6
		c0.9,2.1,1.3,4.2,1.3,6.4s-0.4,4.3-1.3,6.4C234.5,228.5,231.3,231.1,226.7,231.6z M229.9,217.4c0-5.3-2-8-5.9-8.1h-1.5v16.6l1.5,0
		C227.9,225.4,229.9,222.6,229.9,217.4z"/>
</g>
<g>
	<path class="st0" d="M39.4,266.6v7.1c0,3-1.7,4.5-5.1,4.5s-5.1-1.5-5.1-4.5v-25.6c0-3,1.7-4.5,5.1-4.5h11.5c2.9,0,5.3,1.1,7.2,3.4
		c1.9,2.3,2.9,4.9,2.8,8c-0.1,3.1-1.1,5.8-3.2,8.1c-2.1,2.3-4.7,3.5-8,3.5H39.4z M39.4,250.5v7.9h2.9c2.9,0,4.3-1.3,4.3-4
		c0-2.6-1.4-4-4.3-4H39.4z"/>
	<path class="st0" d="M93.3,260.5c0,5.4-1.7,9.7-5.2,13c-3.5,3.3-7.9,5-13.2,5s-9.7-1.7-13.1-5c-3.4-3.3-5.2-7.6-5.2-13
		s1.7-9.7,5.1-13c3.4-3.3,7.8-5,13.2-5c5.4,0,9.8,1.7,13.2,5C91.6,250.8,93.3,255.2,93.3,260.5z M81.1,254.1
		c-1.5-1.7-3.6-2.5-6.2-2.5s-4.6,0.9-6.2,2.6c-1.6,1.7-2.3,3.9-2.3,6.4s0.8,4.7,2.3,6.4c1.6,1.7,3.6,2.5,6.2,2.5
		c2.6,0,4.6-0.8,6.2-2.5c1.5-1.7,2.3-3.8,2.3-6.4C83.4,257.9,82.6,255.8,81.1,254.1z"/>
	<path class="st0" d="M112.5,278.2h-13c-3.4,0-5.1-1.5-5.1-4.5V248c0-3,1.7-4.5,5.1-4.5s5.1,1.5,5.1,4.5v22h8c2.1,0,3.2,1.4,3.2,4.1
		S114.7,278.2,112.5,278.2z"/>
	<path class="st0" d="M126.4,231.8c1,0.8,1.5,1.9,1.7,3.3c0.1,1.4-0.4,2.6-1.6,3.6c-1.2,1-2.6,2-4.1,2.8s-2.9,0.8-4,0
		c-1.2-0.9-1.4-2.1-0.7-3.7c0.7-1.6,1.4-3,2.2-4.4s1.9-2.2,3.1-2.5C124.3,230.8,125.4,231,126.4,231.8z M127.6,248
		c0-3-1.7-4.5-5.1-4.5s-5.1,1.5-5.1,4.5v25.7c0,3,1.7,4.5,5.1,4.5s5.1-1.5,5.1-4.5V248z"/>
	<path class="st0" d="M148.7,251.7v22.1c0,3-1.7,4.5-5.1,4.5c-3.4,0-5.1-1.5-5.1-4.5v-22.1h-5.1c-2.7,0-4.1-1.4-4.1-4.1
		s1.4-4.1,4.1-4.1h20.5c2.7,0,4.1,1.4,4.1,4.1s-1.4,4.1-4.1,4.1H148.7z"/>
	<path class="st0" d="M169.3,273.7c0,3-1.7,4.5-5.1,4.5s-5.1-1.5-5.1-4.5V248c0-3,1.7-4.5,5.1-4.5s5.1,1.5,5.1,4.5V273.7z"/>
	<path class="st0" d="M202.6,272c0,1.2-1,2.6-3,4.2c-2,1.6-5.6,2.3-10.9,2.3s-9.7-1.7-13.1-5c-3.4-3.3-5.2-7.6-5.2-13
		s1.7-9.7,5.1-13c3.4-3.3,7.8-5,13.2-5c5.4,0,9.1,0.8,11,2.3c1.9,1.6,2.9,3,2.9,4.2s-0.4,2.3-1.2,3.3c-0.8,1-1.7,1.5-2.7,1.5
		c-1,0-2.5-0.4-4.7-1.1c-2.1-0.8-3.7-1.1-4.8-1.1c-5.8,0-8.6,3-8.6,9c0,6,2.9,9,8.6,9c1.1,0,2.7-0.4,4.8-1.1s3.7-1.1,4.7-1.1
		c1,0,1.9,0.5,2.7,1.5C202.2,269.6,202.6,270.7,202.6,272z"/>
	<path class="st0" d="M214.6,272.1l-1,2.6c-0.9,2.3-2.3,3.5-4.3,3.5c-2,0-3.4-0.6-4.3-1.8c-0.9-1.2-1.3-2.3-1.3-3.3
		c0-1,0.2-1.9,0.6-2.9L215,247c1.1-2.3,2.7-3.5,4.9-3.5c2.2,0,3.8,1.2,4.9,3.5l10.6,23.2c0.4,1,0.7,1.9,0.7,2.9c0,1-0.4,2.1-1.3,3.3
		c-0.8,1.2-2.3,1.8-4.3,1.8s-3.5-1.2-4.4-3.5l-1-2.6H214.6z M222.1,263.9l-2.2-6l-2.2,6H222.1z"/>
</g>
<g>
	<path class="st5" d="M18.9,267.5v5.3c0,1.7-0.8,2.6-2.3,2.6H3.3c-1.5,0-2.3-0.9-2.3-2.6v-5.3c0.3-2.9,2-4.9,4.9-6
		c1.4-0.5,2.7-0.8,4.1-0.8s2.7,0.3,4.1,0.8C16.9,262.5,18.6,264.6,18.9,267.5z M9.8,265.5c-3.4,0-5.1,1.3-5.2,3.8v1h10.6l0-1
		C15,266.7,13.2,265.5,9.8,265.5z"/>
	<path class="st5" d="M15.7,254.1l1.4,0.5c1.2,0.5,1.8,1.2,1.8,2.2s-0.3,1.8-0.9,2.2c-0.6,0.4-1.2,0.7-1.7,0.7c-0.5,0-1-0.1-1.5-0.3
		l-12-5.5c-1.2-0.5-1.8-1.4-1.8-2.5c0-1.1,0.6-2,1.8-2.5l12-5.5c0.5-0.2,1-0.3,1.5-0.3c0.5,0,1.1,0.2,1.7,0.6
		c0.6,0.4,0.9,1.2,0.9,2.2c0,1-0.6,1.8-1.8,2.2l-1.4,0.5V254.1z M11.5,250.2l-3.1,1.1l3.1,1.1V250.2z"/>
</g>
</svg>
