<?xml version="1.0" encoding="UTF-8" standalone="no"?>
<!-- Generator: Adobe Illustrator 19.2.0, SVG Export Plug-In . SVG Version: 6.00 Build 0)  -->

<svg
   xmlns:dc="http://purl.org/dc/elements/1.1/"
   xmlns:cc="http://creativecommons.org/ns#"
   xmlns:rdf="http://www.w3.org/1999/02/22-rdf-syntax-ns#"
   xmlns:svg="http://www.w3.org/2000/svg"
   xmlns="http://www.w3.org/2000/svg"
   xmlns:sodipodi="http://sodipodi.sourceforge.net/DTD/sodipodi-0.dtd"
   xmlns:inkscape="http://www.inkscape.org/namespaces/inkscape"
   version="1.1"
   id="Camada_1"
   x="0px"
   y="0px"
   viewBox="0 0 237.5 276.4"
   style="enable-background:new 0 0 237.5 276.4;"
   xml:space="preserve"
   inkscape:version="0.91 r"
   sodipodi:docname="logo.svg"><metadata
     id="metadata4391"><rdf:RDF><cc:Work
         rdf:about=""><dc:format>image/svg+xml</dc:format><dc:type
           rdf:resource="http://purl.org/dc/dcmitype/StillImage" /></cc:Work></rdf:RDF></metadata><defs
     id="defs4389" /><sodipodi:namedview
     pagecolor="#ffffff"
     bordercolor="#666666"
     borderopacity="1"
     objecttolerance="10"
     gridtolerance="10"
     guidetolerance="10"
     inkscape:pageopacity="0"
     inkscape:pageshadow="2"
     inkscape:window-width="1366"
     inkscape:window-height="717"
     id="namedview4387"
     showgrid="false"
     inkscape:zoom="1.9536903"
     inkscape:cx="118.75"
     inkscape:cy="53.654116"
     inkscape:window-x="0"
     inkscape:window-y="25"
     inkscape:window-maximized="1"
     inkscape:current-layer="Camada_1" /><style
     type="text/css"
     id="style4297">
	.st0{fill:#265D9F;}
	.st1{fill:#D78728;}
	.st2{fill:#FFFFFF;}
	.st3{fill:#3FAC49;}
	.st4{fill:#F59121;}
	.st5{fill:#363221;}
</style><path
     class="st0"
     d="M221.5,139.9l-194.7,4.3c0,0,3.1,38.3,98.2,38.5C125.1,182.7,216.7,179.5,221.5,139.9"
     id="path4299" /><path
     class="st1"
     d="M25.8,60.4L220.5,57c0,0-3.2-54-98.4-55.6C122.1,1.3,30.5,4.6,25.8,60.4"
     id="path4301" /><rect
     x="112.7"
     y="21.6"
     transform="matrix(8.726681e-003 -1 1 8.726681e-003 -4.4352 241.0244)"
     class="st2"
     width="13.4"
     height="202.2"
     id="rect4303" /><rect
     x="27.7"
     y="71.2"
     transform="matrix(0.9998 -1.745392e-002 1.745392e-002 0.9998 -1.4877 2.2695)"
     class="st3"
     width="203.1"
     height="30.3"
     id="rect4305" /><path
     class="st4"
     d="M79.7,36.3c1.1,0,2-0.9,2-2c0-1.1-0.9-2-2-2c-1.1,0-2,0.9-2,2C77.7,35.4,78.6,36.3,79.7,36.3"
     id="path4307" /><path
     class="st4"
     d="M106.4,15.9c1.3,0,2.4-1.1,2.4-2.4c0-1.3-1.1-2.4-2.4-2.4c-1.3,0-2.4,1.1-2.4,2.4  C103.9,14.9,105,15.9,106.4,15.9"
     id="path4309" /><path
     class="st4"
     d="M128,28.4c1,0,1.9-0.8,1.9-1.9c0-1-0.8-1.9-1.9-1.9c-1,0-1.9,0.8-1.9,1.9C126.1,27.5,127,28.4,128,28.4"
     id="path4311" /><path
     class="st4"
     d="M140,20.7c1,0,1.9-0.8,1.9-1.9c0-1-0.8-1.9-1.9-1.9c-1,0-1.9,0.8-1.9,1.9C138.1,19.9,139,20.7,140,20.7"
     id="path4313" /><path
     class="st4"
     d="M170.9,40.8c1,0,1.9-0.8,1.9-1.9c0-1-0.8-1.9-1.9-1.9c-1,0-1.9,0.8-1.9,1.9C169,40,169.9,40.8,170.9,40.8"
     id="path4315" /><path
     class="st4"
     d="M172.7,22.1c1,0,1.9-0.6,1.9-1.4c0-0.8-0.8-1.4-1.9-1.4s-1.9,0.6-1.9,1.4C170.9,21.4,171.7,22.1,172.7,22.1"
     id="path4317" /><path
     class="st4"
     d="M109.7,30.2c1.4,0,2.6-1.2,2.6-2.6c0-1.4-1.2-2.6-2.6-2.6c-1.4,0-2.6,1.2-2.6,2.6  C107.1,29.1,108.3,30.2,109.7,30.2"
     id="path4319" /><path
     class="st4"
     d="M199,47.7c0.9,0,1.6-0.7,1.6-1.6c0-0.9-0.7-1.6-1.6-1.6c-0.9,0-1.6,0.7-1.6,1.6C197.5,47,198.1,47.7,199,47.7"
     id="path4321" /><path
     class="st4"
     d="M141.8,36.5c1.2,0,2.3-1,2.3-2.3c0-1.2-1-2.3-2.3-2.3c-1.2,0-2.3,1-2.3,2.3C139.6,35.5,140.6,36.5,141.8,36.5"
     id="path4323" /><path
     class="st4"
     d="M148.7,13.5c1.3,0,2.4-1.1,2.4-2.4c0-1.3-1.1-2.4-2.4-2.4c-1.3,0-2.4,1.1-2.4,2.4  C146.3,12.4,147.4,13.5,148.7,13.5"
     id="path4325" /><path
     class="st4"
     d="M60.9,43.9c1.3,0,2.3-1,2.3-2.3c0-1.3-1-2.3-2.3-2.3c-1.3,0-2.3,1-2.3,2.3C58.6,42.9,59.6,43.9,60.9,43.9"
     id="path4327" /><path
     class="st4"
     d="M186.6,33.3c1.3,0,2.4-1.1,2.4-2.4c0-1.3-1.1-2.4-2.4-2.4c-1.3,0-2.4,1.1-2.4,2.4  C184.2,32.2,185.3,33.3,186.6,33.3"
     id="path4329" /><path
     class="st4"
     d="M72.5,24.4c0.9,0,1.7-0.7,1.7-1.6c0-0.9-0.7-1.6-1.7-1.6c-0.9,0-1.7,0.7-1.7,1.6C70.8,23.7,71.6,24.4,72.5,24.4  "
     id="path4331" /><path
     class="st4"
     d="M96.4,44.7c0.9,0,1.7-0.7,1.7-1.5c0-0.8-0.7-1.5-1.7-1.5c-0.9,0-1.7,0.7-1.7,1.5C94.7,44,95.5,44.7,96.4,44.7"
     id="path4333" /><path
     class="st4"
     d="M150.4,42.4c0.9,0,1.7-0.8,1.7-1.7c0-1-0.7-1.7-1.7-1.7c-0.9,0-1.7,0.8-1.7,1.7  C148.7,41.6,149.5,42.4,150.4,42.4"
     id="path4335" /><path
     class="st4"
     d="M126.3,15c0.9,0,1.7-0.7,1.7-1.5c0-0.8-0.7-1.5-1.7-1.5c-0.9,0-1.7,0.7-1.7,1.5C124.6,14.4,125.4,15,126.3,15"
     id="path4337" /><path
     class="st4"
     d="M94.7,22.9c0.9,0,1.7-0.8,1.7-1.7c0-0.9-0.7-1.7-1.7-1.7c-0.9,0-1.7,0.8-1.7,1.7C93,22.2,93.8,22.9,94.7,22.9"
     id="path4339" /><path
     class="st4"
     d="M54.5,28.4c0.9,0,1.7-0.9,1.7-1.9s-0.7-1.9-1.7-1.9c-0.9,0-1.7,0.9-1.7,1.9S53.6,28.4,54.5,28.4"
     id="path4341" /><path
     class="st4"
     d="M163.8,26.4c0.9,0,1.7-0.8,1.7-1.8c0-1-0.7-1.8-1.7-1.8c-0.9,0-1.7,0.8-1.7,1.8  C162.2,25.6,162.9,26.4,163.8,26.4"
     id="path4343" /><g
     id="g4345"
     transform="translate(0,-4)"><path
       class="st2"
       d="m 33.1,231.6 c -2.7,0 -4.1,-1.2 -4.1,-3.6 l 0,-20.8 c 0,-2.4 1.4,-3.6 4.1,-3.6 l 9.9,0 c 2.1,0 3.2,1.1 3.2,3.3 0,2.2 -1.1,3.3 -3.2,3.3 l -5.8,0 0,4 5,0 c 2.1,0 3.2,1.1 3.2,3.3 0,2.2 -1.1,3.3 -3.2,3.3 l -5,0 0,7.1 c 0,2.5 -1.4,3.7 -4.1,3.7 z"
       id="path4347"
       inkscape:connector-curvature="0"
       style="fill:#ffffff" /><path
       class="st2"
       d="m 56.7,226.6 -0.8,2.1 c -0.7,1.9 -1.9,2.8 -3.5,2.8 -1.6,0 -2.8,-0.5 -3.5,-1.5 -0.7,-1 -1,-1.9 -1,-2.7 0,-0.8 0.2,-1.6 0.5,-2.3 l 8.5,-18.7 c 0.9,-1.9 2.2,-2.8 3.9,-2.8 1.7,0 3.1,0.9 3.9,2.8 l 8.6,18.7 c 0.4,0.8 0.5,1.6 0.5,2.3 0,0.8 -0.3,1.7 -1,2.7 -0.7,1 -1.8,1.5 -3.5,1.5 -1.6,0 -2.8,-0.9 -3.5,-2.8 l -0.8,-2.1 -8.3,0 z m 6,-6.6 -1.8,-4.8 -1.8,4.8 3.6,0 z"
       id="path4349"
       inkscape:connector-curvature="0"
       style="fill:#ffffff" /><path
       class="st2"
       d="m 86.9,231.7 c -2.7,0 -5.2,-0.4 -7.7,-1.3 -2.5,-0.8 -3.7,-2.3 -3.7,-4.5 0,-2.2 1,-3.3 2.9,-3.3 0.3,0 1.4,0.4 3.5,1.1 2.1,0.7 3.8,1.1 5.2,1.1 1.5,0 2.2,-0.6 2.2,-1.9 0,-0.8 -0.5,-1.5 -1.5,-2 -1,-0.5 -2.4,-1.1 -4.2,-1.7 -1.8,-0.6 -2.9,-1 -3.4,-1.3 -2.1,-1.4 -3.1,-3.4 -3.1,-6.1 0,-2.7 0.9,-4.8 2.6,-6.5 1.7,-1.6 3.7,-2.4 6.1,-2.4 2.3,0 4.4,0.3 6.1,0.8 3.2,1 4.5,2.5 3.9,4.5 -0.6,2 -1.8,2.9 -3.4,2.8 -0.2,0 -1,-0.3 -2.5,-0.8 -1.5,-0.6 -2.8,-0.8 -4,-0.8 -1.2,0 -1.8,0.6 -1.8,1.7 0,0.7 0.5,1.4 1.5,1.9 1,0.5 2.4,1.1 4.2,1.7 1.8,0.6 2.9,1.1 3.4,1.4 2.1,1.4 3.2,3.6 3.2,6.4 0,2.8 -0.9,5.1 -2.7,6.7 -1.9,1.7 -4.1,2.5 -6.8,2.5 z"
       id="path4351"
       inkscape:connector-curvature="0"
       style="fill:#ffffff" /><path
       class="st2"
       d="m 113.4,210.2 0,17.8 c 0,2.4 -1.4,3.6 -4.1,3.6 -2.7,0 -4.1,-1.2 -4.1,-3.6 l 0,-17.8 -4.2,0 c -2.2,0 -3.3,-1.1 -3.3,-3.3 0,-2.2 1.1,-3.3 3.3,-3.3 l 16.5,0 c 2.2,0 3.3,1.1 3.3,3.3 0,2.2 -1.1,3.3 -3.3,3.3 l -4.1,0 z"
       id="path4353"
       inkscape:connector-curvature="0"
       style="fill:#ffffff" /><path
       class="st2"
       d="m 137,231.6 c -2.7,0 -4.1,-1.2 -4.1,-3.6 l 0,-20.8 c 0,-2.4 1.4,-3.6 4.1,-3.6 l 9.9,0 c 2.1,0 3.2,1.1 3.2,3.3 0,2.2 -1.1,3.3 -3.2,3.3 l -5.8,0 0,4 5,0 c 2.1,0 3.2,1.1 3.2,3.3 0,2.2 -1.1,3.3 -3.2,3.3 l -5,0 0,7.1 c 0,2.5 -1.4,3.7 -4.1,3.7 z"
       id="path4355"
       inkscape:connector-curvature="0"
       style="fill:#ffffff" /><path
       class="st2"
       d="m 181.5,217.3 c 0,4.3 -1.4,7.8 -4.2,10.5 -2.8,2.7 -6.4,4 -10.6,4 -4.2,0 -7.8,-1.3 -10.6,-4 -2.8,-2.7 -4.2,-6.2 -4.2,-10.5 0,-4.3 1.4,-7.8 4.1,-10.5 2.8,-2.7 6.3,-4 10.7,-4 4.4,0 7.9,1.3 10.7,4 2.7,2.7 4.1,6.2 4.1,10.5 z m -9.8,-5.2 c -1.2,-1.4 -2.9,-2.1 -5,-2.1 -2.1,0 -3.7,0.7 -5,2.1 -1.3,1.4 -1.9,3.1 -1.9,5.2 0,2.1 0.6,3.8 1.9,5.2 1.3,1.4 2.9,2 5,2 2.1,0 3.7,-0.7 5,-2.1 1.3,-1.4 1.9,-3.1 1.9,-5.2 -0.1,-2 -0.7,-3.7 -1.9,-5.1 z"
       id="path4357"
       inkscape:connector-curvature="0"
       style="fill:#ffffff" /><path
       class="st2"
       d="m 212.6,217.3 c 0,4.3 -1.4,7.8 -4.2,10.5 -2.8,2.7 -6.4,4 -10.6,4 -4.2,0 -7.8,-1.3 -10.6,-4 -2.8,-2.7 -4.2,-6.2 -4.2,-10.5 0,-4.3 1.4,-7.8 4.1,-10.5 2.8,-2.7 6.3,-4 10.7,-4 4.4,0 7.9,1.3 10.7,4 2.7,2.7 4.1,6.2 4.1,10.5 z m -9.9,-5.2 c -1.2,-1.4 -2.9,-2.1 -5,-2.1 -2.1,0 -3.7,0.7 -5,2.1 -1.3,1.4 -1.9,3.1 -1.9,5.2 0,2.1 0.6,3.8 1.9,5.2 1.3,1.4 2.9,2 5,2 2.1,0 3.7,-0.7 5,-2.1 1.3,-1.4 1.9,-3.1 1.9,-5.2 0,-2 -0.6,-3.7 -1.9,-5.1 z"
       id="path4359"
       inkscape:connector-curvature="0"
       style="fill:#ffffff" /><path
       class="st2"
       d="m 226.7,231.6 -8.3,0 c -2.7,0 -4.1,-1.2 -4.1,-3.6 l 0,-20.8 c 0,-2.4 1.4,-3.6 4.1,-3.6 l 8.3,0 c 4.6,0.5 7.7,3.1 9.4,7.6 0.9,2.1 1.3,4.2 1.3,6.4 0,2.2 -0.4,4.3 -1.3,6.4 -1.6,4.5 -4.8,7.1 -9.4,7.6 z m 3.2,-14.2 c 0,-5.3 -2,-8 -5.9,-8.1 l -1.5,0 0,16.6 1.5,0 c 3.9,-0.5 5.9,-3.3 5.9,-8.5 z"
       id="path4361"
       inkscape:connector-curvature="0"
       style="fill:#ffffff" /></g><g
     id="g4363"
     transform="translate(0,-4)"><path
       class="st0"
       d="m 39.4,266.6 0,7.1 c 0,3 -1.7,4.5 -5.1,4.5 -3.4,0 -5.1,-1.5 -5.1,-4.5 l 0,-25.6 c 0,-3 1.7,-4.5 5.1,-4.5 l 11.5,0 c 2.9,0 5.3,1.1 7.2,3.4 1.9,2.3 2.9,4.9 2.8,8 -0.1,3.1 -1.1,5.8 -3.2,8.1 -2.1,2.3 -4.7,3.5 -8,3.5 l -5.2,0 z m 0,-16.1 0,7.9 2.9,0 c 2.9,0 4.3,-1.3 4.3,-4 0,-2.6 -1.4,-4 -4.3,-4 l -2.9,0 z"
       id="path4365"
       inkscape:connector-curvature="0"
       style="fill:#265d9f" /><path
       class="st0"
       d="m 93.3,260.5 c 0,5.4 -1.7,9.7 -5.2,13 -3.5,3.3 -7.9,5 -13.2,5 -5.3,0 -9.7,-1.7 -13.1,-5 -3.4,-3.3 -5.2,-7.6 -5.2,-13 0,-5.4 1.7,-9.7 5.1,-13 3.4,-3.3 7.8,-5 13.2,-5 5.4,0 9.8,1.7 13.2,5 3.5,3.3 5.2,7.7 5.2,13 z m -12.2,-6.4 c -1.5,-1.7 -3.6,-2.5 -6.2,-2.5 -2.6,0 -4.6,0.9 -6.2,2.6 -1.6,1.7 -2.3,3.9 -2.3,6.4 0,2.5 0.8,4.7 2.3,6.4 1.6,1.7 3.6,2.5 6.2,2.5 2.6,0 4.6,-0.8 6.2,-2.5 1.5,-1.7 2.3,-3.8 2.3,-6.4 0,-2.7 -0.8,-4.8 -2.3,-6.5 z"
       id="path4367"
       inkscape:connector-curvature="0"
       style="fill:#265d9f" /><path
       class="st0"
       d="m 112.5,278.2 -13,0 c -3.4,0 -5.1,-1.5 -5.1,-4.5 l 0,-25.7 c 0,-3 1.7,-4.5 5.1,-4.5 3.4,0 5.1,1.5 5.1,4.5 l 0,22 8,0 c 2.1,0 3.2,1.4 3.2,4.1 0,2.7 -1.1,4.1 -3.3,4.1 z"
       id="path4369"
       inkscape:connector-curvature="0"
       style="fill:#265d9f" /><path
       class="st0"
       d="m 126.4,231.8 c 1,0.8 1.5,1.9 1.7,3.3 0.1,1.4 -0.4,2.6 -1.6,3.6 -1.2,1 -2.6,2 -4.1,2.8 -1.5,0.8 -2.9,0.8 -4,0 -1.2,-0.9 -1.4,-2.1 -0.7,-3.7 0.7,-1.6 1.4,-3 2.2,-4.4 0.8,-1.4 1.9,-2.2 3.1,-2.5 1.3,-0.1 2.4,0.1 3.4,0.9 z m 1.2,16.2 c 0,-3 -1.7,-4.5 -5.1,-4.5 -3.4,0 -5.1,1.5 -5.1,4.5 l 0,25.7 c 0,3 1.7,4.5 5.1,4.5 3.4,0 5.1,-1.5 5.1,-4.5 l 0,-25.7 z"
       id="path4371"
       inkscape:connector-curvature="0"
       style="fill:#265d9f" /><path
       class="st0"
       d="m 148.7,251.7 0,22.1 c 0,3 -1.7,4.5 -5.1,4.5 -3.4,0 -5.1,-1.5 -5.1,-4.5 l 0,-22.1 -5.1,0 c -2.7,0 -4.1,-1.4 -4.1,-4.1 0,-2.7 1.4,-4.1 4.1,-4.1 l 20.5,0 c 2.7,0 4.1,1.4 4.1,4.1 0,2.7 -1.4,4.1 -4.1,4.1 l -5.2,0 z"
       id="path4373"
       inkscape:connector-curvature="0"
       style="fill:#265d9f" /><path
       class="st0"
       d="m 169.3,273.7 c 0,3 -1.7,4.5 -5.1,4.5 -3.4,0 -5.1,-1.5 -5.1,-4.5 l 0,-25.7 c 0,-3 1.7,-4.5 5.1,-4.5 3.4,0 5.1,1.5 5.1,4.5 l 0,25.7 z"
       id="path4375"
       inkscape:connector-curvature="0"
       style="fill:#265d9f" /><path
       class="st0"
       d="m 202.6,272 c 0,1.2 -1,2.6 -3,4.2 -2,1.6 -5.6,2.3 -10.9,2.3 -5.3,0 -9.7,-1.7 -13.1,-5 -3.4,-3.3 -5.2,-7.6 -5.2,-13 0,-5.4 1.7,-9.7 5.1,-13 3.4,-3.3 7.8,-5 13.2,-5 5.4,0 9.1,0.8 11,2.3 1.9,1.6 2.9,3 2.9,4.2 0,1.2 -0.4,2.3 -1.2,3.3 -0.8,1 -1.7,1.5 -2.7,1.5 -1,0 -2.5,-0.4 -4.7,-1.1 -2.1,-0.8 -3.7,-1.1 -4.8,-1.1 -5.8,0 -8.6,3 -8.6,9 0,6 2.9,9 8.6,9 1.1,0 2.7,-0.4 4.8,-1.1 2.1,-0.7 3.7,-1.1 4.7,-1.1 1,0 1.9,0.5 2.7,1.5 0.8,0.7 1.2,1.8 1.2,3.1 z"
       id="path4377"
       inkscape:connector-curvature="0"
       style="fill:#265d9f" /><path
       class="st0"
       d="m 214.6,272.1 -1,2.6 c -0.9,2.3 -2.3,3.5 -4.3,3.5 -2,0 -3.4,-0.6 -4.3,-1.8 -0.9,-1.2 -1.3,-2.3 -1.3,-3.3 0,-1 0.2,-1.9 0.6,-2.9 L 215,247 c 1.1,-2.3 2.7,-3.5 4.9,-3.5 2.2,0 3.8,1.2 4.9,3.5 l 10.6,23.2 c 0.4,1 0.7,1.9 0.7,2.9 0,1 -0.4,2.1 -1.3,3.3 -0.8,1.2 -2.3,1.8 -4.3,1.8 -2,0 -3.5,-1.2 -4.4,-3.5 l -1,-2.6 -10.5,0 z m 7.5,-8.2 -2.2,-6 -2.2,6 4.4,0 z"
       id="path4379"
       inkscape:connector-curvature="0"
       style="fill:#265d9f" /></g><g
     id="g4381"
     transform="translate(0,-4)"><path
       class="st5"
       d="m 18.9,267.5 0,5.3 c 0,1.7 -0.8,2.6 -2.3,2.6 l -13.3,0 C 1.8,275.4 1,274.5 1,272.8 l 0,-5.3 c 0.3,-2.9 2,-4.9 4.9,-6 1.4,-0.5 2.7,-0.8 4.1,-0.8 1.4,0 2.7,0.3 4.1,0.8 2.8,1 4.5,3.1 4.8,6 z m -9.1,-2 c -3.4,0 -5.1,1.3 -5.2,3.8 l 0,1 10.6,0 0,-1 c -0.2,-2.6 -2,-3.8 -5.4,-3.8 z"
       id="path4383"
       inkscape:connector-curvature="0"
       style="fill:#363221" /><path
       class="st5"
       d="m 15.7,254.1 1.4,0.5 c 1.2,0.5 1.8,1.2 1.8,2.2 0,1 -0.3,1.8 -0.9,2.2 -0.6,0.4 -1.2,0.7 -1.7,0.7 -0.5,0 -1,-0.1 -1.5,-0.3 l -12,-5.5 C 1.6,253.4 1,252.5 1,251.4 c 0,-1.1 0.6,-2 1.8,-2.5 l 12,-5.5 c 0.5,-0.2 1,-0.3 1.5,-0.3 0.5,0 1.1,0.2 1.7,0.6 0.6,0.4 0.9,1.2 0.9,2.2 0,1 -0.6,1.8 -1.8,2.2 l -1.4,0.5 0,5.5 z m -4.2,-3.9 -3.1,1.1 3.1,1.1 0,-2.2 z"
       id="path4385"
       inkscape:connector-curvature="0"
       style="fill:#363221" /></g></svg>