<svg xmlns="http://www.w3.org/2000/svg">
<defs>
<font id="Insaniburger" horiz-adv-x="1500" >
  <font-face 
    font-family="Insaniburger"
    font-weight="400"
    font-stretch="normal"
    units-per-em="2048"
    panose-1="2 0 0 0 0 0 0 0 0 0"
    ascent="1638"
    descent="-410"
    cap-height="1356"
    bbox="-683 -422 1973 1847"
    underline-thickness="48"
    underline-position="-140"
    unicode-range="U+0020-U+2219"
  />
<missing-glyph horiz-adv-x="1638" 
d="M1666 1107q14 2 37 8q8 6 8 20q0 54 -63 123q-109 119 -305 170q-119 31 -238 41q-137 12 -286 0q-258 -19 -415 -102q-211 -109 -211 -223q0 -37 51 -37v0h1422zM220 264q-9 2 -25 -6q-2 -4 -2 -8q2 -13 8 -25q88 -192 493 -223q21 0 45 -2q201 -12 397 0
q348 19 475 111q63 45 94 112q10 21 2 33q-6 8 -25 8v0h-1462zM1654 798q0 -40 -45.5 -40t-45.5 40v232q0 40 45.5 40t45.5 -40v-232zM1437 931v99q0 40 45.5 40t45.5 -40v-232q0 -40 -46 -40q-25 0 -40 18l-102 122v-100q0 -40 -46 -40t-46 40v232q0 40 46 40q29 0 42 -19z
M722 771q-42 14 -42 50.5t33 36.5q5 0 38.5 -13t58 -13t24.5 21q0 14 -16.5 23t-47 19t-37.5 15q-35 23 -35 68t29 73q29 27 68 27t68 -9q54 -17 43.5 -50.5t-38.5 -30.5q-3 0 -28 9.5t-44.5 9.5t-19.5 -20q0 -12 16.5 -21t46.5 -19.5t38 -15.5q35 -24 35 -71.5t-30 -75.5
q-29 -27 -73.5 -27t-86.5 14zM1095 887l-20 54l-20 -54h40zM1028 813l-9 -24q-12 -31 -38.5 -31t-38.5 16.5t-12 29.5t6 26l95 209q15 31 44 31t44 -31l95 -209q6 -13 6 -26t-11 -29.5t-38.5 -16.5t-39.5 31l-9 24h-94zM564 931v99q0 40 46 40t46 -40v-232q0 -40 -46 -40
q-25 0 -40 18l-103 122v-100q0 -40 -45.5 -40t-45.5 40v232q0 40 46 40q29 0 42 -19zM341 798q0 -40 -45.5 -40t-45.5 40v232q0 40 45.5 40t45.5 -40v-232zM483 620v-263q0 -54 -61 -54t-61 54v263h-62q-49 0 -49 49t49 49h246q49 0 49 -49t-49 -49h-62zM822 586l68 90
q30 39 66.5 39t49 -20t12.5 -35.5t-11 -37.5l-126 -164v-101q0 -53 -61 -53t-61 53v101l-123 164q-11 22 -11 37.5t12.5 35.5t49 20t66.5 -39zM1233 442q59 0 96 41.5t38.5 97t-33.5 96t-86 40.5h-138q-61 0 -61 -54v-306q0 -53 61 -53t61 53v85h62zM1206 634q52 0 52 -47

<glyph glyph-name=".notdef" horiz-adv-x="1638" 
d="M1666 1107q14 2 37 8q8 6 8 20q0 54 -63 123q-109 119 -305 170q-119 31 -238 41q-137 12 -286 0q-258 -19 -415 -102q-211 -109 -211 -223q0 -37 51 -37v0h1422zM220 264q-9 2 -25 -6q-2 -4 -2 -8q2 -13 8 -25q88 -192 493 -223q21 0 45 -2q201 -12 397 0
q348 19 475 111q63 45 94 112q10 21 2 33q-6 8 -25 8v0h-1462zM1654 798q0 -40 -45.5 -40t-45.5 40v232q0 40 45.5 40t45.5 -40v-232zM1437 931v99q0 40 45.5 40t45.5 -40v-232q0 -40 -46 -40q-25 0 -40 18l-102 122v-100q0 -40 -46 -40t-46 40v232q0 40 46 40q29 0 42 -19z
M722 771q-42 14 -42 50.5t33 36.5q5 0 38.5 -13t58 -13t24.5 21q0 14 -16.5 23t-47 19t-37.5 15q-35 23 -35 68t29 73q29 27 68 27t68 -9q54 -17 43.5 -50.5t-38.5 -30.5q-3 0 -28 9.5t-44.5 9.5t-19.5 -20q0 -12 16.5 -21t46.5 -19.5t38 -15.5q35 -24 35 -71.5t-30 -75.5
q-29 -27 -73.5 -27t-86.5 14zM1095 887l-20 54l-20 -54h40zM1028 813l-9 -24q-12 -31 -38.5 -31t-38.5 16.5t-12 29.5t6 26l95 209q15 31 44 31t44 -31l95 -209q6 -13 6 -26t-11 -29.5t-38.5 -16.5t-39.5 31l-9 24h-94zM564 931v99q0 40 46 40t46 -40v-232q0 -40 -46 -40
q-25 0 -40 18l-103 122v-100q0 -40 -45.5 -40t-45.5 40v232q0 40 46 40q29 0 42 -19zM341 798q0 -40 -45.5 -40t-45.5 40v232q0 40 45.5 40t45.5 -40v-232zM483 620v-263q0 -54 -61 -54t-61 54v263h-62q-49 0 -49 49t49 49h246q49 0 49 -49t-49 -49h-62zM822 586l68 90
q30 39 66.5 39t49 -20t12.5 -35.5t-11 -37.5l-126 -164v-101q0 -53 -61 -53t-61 53v101l-123 164q-11 22 -11 37.5t12.5 35.5t49 20t66.5 -39zM1233 442q59 0 96 41.5t38.5 97t-33.5 96t-86 40.5h-138q-61 0 -61 -54v-306q0 -53 61 -53t61 53v85h62zM1206 634q52 0 52 -47
t-52 -47h-35v94h35zM1607 304q47 0 47 48.5t-47 48.5h-87v62h75q47 0 47 49t-47 49h-75v59h87q47 0 47 49t-47 49h-148q-61 0 -61 -53v-308q0 -53 61 -53h148z" />
    <glyph glyph-name=".null" horiz-adv-x="100" 
 />
    <glyph glyph-name="nonmarkingreturn" horiz-adv-x="100" 
 />
    <glyph glyph-name="space" unicode=" " horiz-adv-x="496" 
 />
    <glyph glyph-name="space" unicode="&#xa0;" horiz-adv-x="496" 
 />
    <glyph glyph-name="exclam" unicode="!" horiz-adv-x="496" 
d="M258.5 423q-89.5 0 -144 -59.5t-54.5 -150.5t54.5 -149.5t144 -58.5t143.5 59.5t54 149.5t-54 149.5t-143.5 59.5zM456 680q0 -174 -198 -174t-198 174v502q0 174 198 174t198 -174v-502z" />
    <glyph glyph-name="quotedbl" unicode="&#x22;" horiz-adv-x="837" 
d="M258.5 1356q-89.5 0 -144 -59.5t-34.5 -150.5t59.5 -184.5t119 -93.5t118.5 94.5t59 184.5t-34 149.5t-143.5 59.5zM658.5 1356q-89.5 0 -144 -59.5t-34.5 -150.5t59.5 -184.5t119 -93.5t118.5 94.5t59 184.5t-34 149.5t-143.5 59.5z" />
    <glyph glyph-name="numbersign" unicode="#" horiz-adv-x="1302" 
d="M536 553h240v242h-240v-242zM206 265q-166 0 -166 144t166 144h34v242h-34q-166 0 -166 144t166 144h34v119q0 154 148 154t148 -154v-119h240v119q0 154 148 154t148 -154v-119h40q160 0 160 -144t-160 -144h-40v-242h40q160 0 160 -144t-160 -144h-40v-105
q0 -154 -148 -154t-148 154v105h-240v-105q0 -154 -148 -154t-148 154v105h-34z" />
    <glyph glyph-name="dollar" unicode="$" horiz-adv-x="1049" 
d="M715 -90q0 -124 -138.5 -124t-138.5 124v99q-83 9 -240.5 62t-137.5 215t144.5 124t233.5 -56v243l-6 2q-131 43 -218.5 124.5t-92.5 255t102 274.5t215 126v103q0 124 138.5 124t138.5 -124v-104q62 -9 191.5 -62.5t103 -204t-294.5 -64.5v-219q321 -118 321 -353
t-103.5 -334.5t-217.5 -125.5v-105z" />
    <glyph glyph-name="percent" unicode="%" horiz-adv-x="1876" 
d="M104 8q-75 -157 -231 -82t-81 232l550 1135q75 157 231 82t80 -232zM1017.5 22q-105.5 -111 -268 -111t-267.5 110.5t-105 290t104 291t269 111.5t269 -111.5t104 -290.5t-105.5 -290zM752 466q-55 0 -88.5 -40.5t-33.5 -102t33.5 -101.5t88.5 -39.5t88.5 40.5
t33.5 101.5t-33.5 101.5t-88.5 40zM-42.5 692q-105.5 -111 -268 -111t-267.5 110.5t-105 290t104 291t269 111.5t269 -111.5t104 -290.5t-105.5 -290zM-308 1136q-55 0 -88.5 -40.5t-33.5 -102t33.5 -101.5t88.5 -39.5t88.5 40.5t33.5 101.5t-33.5 101.5t-88.5 40z" />
    <glyph glyph-name="ampersand" unicode="&#x26;" horiz-adv-x="1747" 
d="M421 647l-38 105l-38 -105h76zM292 505l-17 -45q-22 -61 -74 -61t-74.5 32t-22.5 57t11 50l184 401q27 61 83.5 61t84.5 -61l184 -401q12 -25 12 -50.5t-22 -57t-74.5 -31.5t-75.5 61l-17 45h-182zM1060 732v191q0 77 88 77t88 -77v-447q0 -77 -88 -77q-49 0 -77 34
l-198 235v-192q0 -77 -88 -77t-88 77v447q0 77 88 77q56 0 81 -37zM1551 399h-179q-88 0 -88 77v447q0 77 88 77h179q148 -17 203 -163q28 -68 28 -137.5t-28 -137.5q-55 -146 -203 -163zM1493 879h-32v-356l32 -1q126 13 125.5 182.5t-125.5 174.5z" />
    <glyph glyph-name="quotesingle" unicode="'" horiz-adv-x="437" 
d="M258.5 1356q-89.5 0 -144 -59.5t-34.5 -150.5t59.5 -184.5t119 -93.5t118.5 94.5t59 184.5t-34 149.5t-143.5 59.5z" />
    <glyph glyph-name="parenleft" unicode="(" horiz-adv-x="604" 
d="M410 227q97 -36 123 -55.5t26 -169.5t-164.5 -131t-259.5 182.5t-95 599.5t88 599.5t259.5 209t171.5 -120.5t-26.5 -186t-122.5 -55q-110 -446 0 -873z" />
    <glyph glyph-name="parenright" unicode=")" horiz-adv-x="604" 
d="M188 1111q-97 36 -123 55.5t-26.5 169.5t164 131t260 -182.5t95.5 -599.5t-87.5 -599.5t-259 -209t-172 120.5t26 186t122.5 55q110 446 0 873z" />
    <glyph glyph-name="asterisk" unicode="*" horiz-adv-x="588" 
d="M130 1187q-37 37 -37 75.5t38.5 38.5t75.5 -37l23 -23v30q0 85 55 85t55 -85v-24l17 17q37 37 75.5 37t38.5 -38.5t-37 -75.5l-19 -19h28q85 0 85 -54.5t-85 -54.5h-31l20 -20q37 -37 36.5 -75.5t-38.5 -38.5t-75 37l-15 15v-24q0 -85 -55 -85t-55 85v30l-21 -21
q-37 -37 -75.5 -37t-38.5 38.5t37 75.5l19 19h-26q-85 0 -85 54.5t85 54.5h25z" />
    <glyph glyph-name="plus" unicode="+" horiz-adv-x="1018" 
d="M200 515q-160 0 -160 159t160 159h140v140q0 160 159 160t159 -160v-140h140q160 0 160 -159t-160 -159h-140v-140q0 -160 -159 -160t-159 160v140h-140z" />
    <glyph glyph-name="comma" unicode="," horiz-adv-x="453" 
d="M158.5 -121.5q-67.5 1.5 -74.5 55t41 71.5l22 19q-97 48 -102 164t49 175.5t142.5 60t144 -59.5t45.5 -199t-105 -213.5t-162.5 -73z" />
    <glyph glyph-name="hyphen" unicode="-" horiz-adv-x="1018" 
d="M196 515q-160 0 -160 159t160 159h598q160 0 160 -159t-160 -159h-598z" />
    <glyph glyph-name="hyphen" unicode="&#x2212;" horiz-adv-x="1018" 
d="M196 515q-160 0 -160 159t160 159h598q160 0 160 -159t-160 -159h-598z" />
    <glyph glyph-name="hyphen" unicode="&#x2013;" horiz-adv-x="1018" 
d="M196 515q-160 0 -160 159t160 159h598q160 0 160 -159t-160 -159h-598z" />
    <glyph glyph-name="hyphen" unicode="&#x2010;" horiz-adv-x="1018" 
d="M196 515q-160 0 -160 159t160 159h598q160 0 160 -159t-160 -159h-598z" />
    <glyph glyph-name="period" unicode="." horiz-adv-x="466" 
d="M258.5 423q-89.5 0 -144 -59.5t-54.5 -150.5t54.5 -149.5t144 -58.5t143.5 59.5t54 149.5t-54 149.5t-143.5 59.5z" />
    <glyph glyph-name="slash" unicode="/" horiz-adv-x="1009" 
d="M104 8q-75 -157 -231 -82t-81 232l550 1135q75 157 231 82t80 -232z" />
    <glyph glyph-name="zero" unicode="0" horiz-adv-x="1164" 
d="M1114 372q0 -180 -166.5 -279t-363.5 -99t-365.5 96t-168.5 282v610q0 186 168.5 282t371 96t363.5 -94t161 -284v-610zM718 430v494q0 108 -131 108t-131 -108v-494q0 -114 131 -114t131 114z" />
    <glyph glyph-name="one" unicode="1" horiz-adv-x="738" 
d="M290 180v858h-84q-156 0 -156 159t156 159h282q200 0 200 -174v-1002q0 -175 -199 -174t-199 174z" />
    <glyph glyph-name="two" unicode="2" horiz-adv-x="1024" 
d="M562 324q388 340 413 592t-102.5 363t-314 111t-341.5 -59t-155 -158.5t45.5 -146t85.5 -46.5t140.5 52t233.5 36.5t69.5 -194.5t-488.5 -504q-98 -56 -98 -209t150 -153h678q126 0 126 158t-128 158h-314z" />
    <glyph glyph-name="three" unicode="3" horiz-adv-x="1039" 
d="M224.5 42.5q-142.5 53.5 -142.5 150.5t35 147.5t91.5 50.5t152.5 -33t206.5 -28t115.5 97.5t-50 120.5t-136 18t-81 114t73.5 121.5t127 32.5t53.5 105.5t-37 107.5t-90 37t-133 -44t-133 -44t-86.5 52.5t-33.5 145t129.5 143t292 50.5t304 -81t141.5 -272.5t-162 -293.5
q174 -102 174 -337.5t-120.5 -324.5t-334.5 -89t-356.5 53.5z" />
    <glyph glyph-name="four" unicode="4" horiz-adv-x="1147" 
d="M532 590v138l-106 -138h106zM532 180v56h-244q-167 0 -220 117t-53 167t73 148l438 590q73 98 237.5 98t164.5 -174v-592q164 -2 164 -178.5t-164 -176.5v-55q0 -174 -198 -174t-198 174z" />
    <glyph glyph-name="five" unicode="5" horiz-adv-x="1047" 
d="M562.5 327q-113.5 0 -210.5 32t-150.5 32t-86.5 -51.5t-33 -146.5t142.5 -150t346 -55t331 101t127.5 350q0 425 -495 425v174h282q154 0 154 159t-154 159h-480q-198 0 -198 -174v-462q0 -128 168 -133t275.5 -23.5t101 -127.5t-120 -109z" />
    <glyph glyph-name="six" unicode="6" horiz-adv-x="1065" 
d="M547.5 594q-63.5 0 -102.5 -39.5t-39 -103t39 -102.5t102 -38.5t102 39.5t39 101.5t-38.5 102.5t-102 40zM428 1252q145 180 262.5 134t142 -120t-44.5 -158.5t-142 -197.5q150 -25 266.5 -138t126.5 -323t-136.5 -336t-362.5 -126t-358 126t-137 317.5t121.5 416.5
t261.5 405z" />
    <glyph glyph-name="seven" unicode="7" horiz-adv-x="971" 
d="M174 1356h579q198 0 198 -174v-144q-290 -359 -270 -858q0 -174 -198 -174t-198 174q-20 499 270 858h-381q-124 0 -124 159t124 159z" />
    <glyph glyph-name="eight" unicode="8" horiz-adv-x="1074" 
d="M547.5 599q-63.5 0 -102.5 -39.5t-39 -103t39 -102.5t102 -38.5t102 39.5t39 101.5t-38.5 102.5t-102 40zM241 1298.5q115 101.5 298.5 101.5t304.5 -107t121 -260t-59 -244q133 -129 138 -337t-141.5 -334t-362.5 -126t-358 126t-142 334.5t135 337.5q-59 91 -54 249
t120 259.5zM534 876q54 0 87 33.5t33 87t-33 87t-86.5 33.5t-87 -33.5t-33.5 -86.5t33 -87t87 -34z" />
    <glyph glyph-name="nine" unicode="9" horiz-adv-x="1065" 
d="M534.5 793q63.5 0 102.5 39.5t39 103t-39 102.5t-102 38.5t-102 -39.5t-39 -101.5t38.5 -102.5t102 -40zM654 135q-145 -180 -262.5 -134t-142 120t44.5 158.5t142 197.5q-150 25 -266.5 138t-126.5 323t136.5 336t362.5 126t358 -126t137 -317.5t-121.5 -416.5
t-261.5 -405z" />
    <glyph glyph-name="colon" unicode=":" horiz-adv-x="496" 
d="M258.5 423q-89.5 0 -144 -59.5t-54.5 -150.5t54.5 -149.5t144 -58.5t143.5 59.5t54 149.5t-54 149.5t-143.5 59.5zM258.5 1103q-89.5 0 -144 -59.5t-54.5 -150.5t54.5 -149.5t144 -58.5t143.5 59.5t54 149.5t-54 149.5t-143.5 59.5z" />
    <glyph glyph-name="semicolon" unicode=";" horiz-adv-x="496" 
d="M258.5 1103q-89.5 0 -144 -59.5t-54.5 -150.5t54.5 -149.5t144 -58.5t143.5 59.5t54 149.5t-54 149.5t-143.5 59.5zM180.5 -121.5q-67.5 1.5 -74.5 55t41 71.5l22 19q-98 48 -103 164t49.5 175.5t143 60t144.5 -59.5t46 -199t-105.5 -213.5t-163 -73z" />
    <glyph glyph-name="less" unicode="&#x3c;" horiz-adv-x="1239" 
d="M212 930l702 344q116 50 213 3.5t92 -149.5t-229 -212l-488 -242l488 -240q224 -108 229 -211.5t-91.5 -150.5t-213.5 4l-702 362q-162 84 -162 246t162 246z" />
    <glyph glyph-name="equal" unicode="=" horiz-adv-x="1018" 
d="M196 745q-160 0 -160 159t160 159h598q160 0 160 -159t-160 -159h-598zM196 285q-160 0 -160 159t160 159h598q160 0 160 -159t-160 -159h-598z" />
    <glyph glyph-name="greater" unicode="&#x3e;" horiz-adv-x="1241" 
d="M1056 418l-702 -344q-116 -50 -213 -3.5t-92 149.5t229 212l488 242l-488 240q-224 108 -229 211.5t91.5 150.5t213.5 -4l702 -362q162 -84 162 -246t-162 -246z" />
    <glyph glyph-name="question" unicode="?" horiz-adv-x="996" 
d="M924 1347q132 -120 132 -280.5t-149.5 -244.5t-144.5 -172q0 -144 -193 -144t-193 144q0 171 152 262q44 18 102 62.5t43 104t-91.5 59.5t-182.5 -55t-127 -55q-142 0 -142 147t141 218t333.5 71t319.5 -117zM574.5 423q-89.5 0 -144 -59.5t-54.5 -150.5t54.5 -149.5
t144 -58.5t143.5 59.5t54 149.5t-54 149.5t-143.5 59.5z" />
    <glyph glyph-name="at" unicode="@" horiz-adv-x="1040" 
d="M421 647l-38 105l-38 -105h76zM272 506l-17 -46q-22 -60 -74 -60t-74.5 31.5t-22.5 57t11 50.5l183 401q28 60 84.5 60t83.5 -60l184 -401q12 -25 12 -50.5t-22 -57t-74.5 -31.5t-75.5 60l-16 46h-182zM893 859v-383q0 -77 -88 -77t-88 77v383h-89q-71 0 -71 70.5
t71 70.5h355q71 0 71 -70.5t-71 -70.5h-90z" />
    <glyph glyph-name="A" unicode="A" horiz-adv-x="1325" 
d="M792 564l-86 234l-86 -234h172zM502 244l-38 -102q-51 -136 -167.5 -136t-167 71.5t-50.5 128.5t25 112l412 902q62 136 189 136t189 -136l414 -902q26 -56 26 -113t-49 -128t-167.5 -71t-169.5 136l-38 102h-408z" />
    <glyph glyph-name="A" unicode="a" horiz-adv-x="1325" 
d="M792 564l-86 234l-86 -234h172zM502 244l-38 -102q-51 -136 -167.5 -136t-167 71.5t-50.5 128.5t25 112l412 902q62 136 189 136t189 -136l414 -902q26 -56 26 -113t-49 -128t-167.5 -71t-169.5 136l-38 102h-408z" />
    <glyph glyph-name="B" unicode="B" horiz-adv-x="1139" 
d="M1104 406q0 -400 -424 -400h-432q-198 0 -198 174v1002q0 174 198 174h402q404 0 404 -322q0 -212 -162 -294q212 -102 212 -334zM562 574h-116v-292h120q142 0 142 146t-146 146zM550 1084h-104v-260h108q126 0 126 130t-130 130z" />
    <glyph glyph-name="B" unicode="b" horiz-adv-x="1139" 
d="M1104 406q0 -400 -424 -400h-432q-198 0 -198 174v1002q0 174 198 174h402q404 0 404 -322q0 -212 -162 -294q212 -102 212 -334zM562 574h-116v-292h120q142 0 142 146t-146 146zM550 1084h-104v-260h108q126 0 126 130t-130 130z" />
    <glyph glyph-name="C" unicode="C" horiz-adv-x="1339" 
d="M1189 85q-115 -91 -426 -91t-512 193.5t-201 506.5t200 507.5t515.5 194.5t427 -91t111.5 -163.5t-48 -129t-105.5 -56.5t-182 44t-186.5 44q-336 0 -336 -349t336 -349q62 0 186.5 44t182 44t105.5 -56.5t48 -129t-115 -163.5z" />
    <glyph glyph-name="C" unicode="c" horiz-adv-x="1339" 
d="M1189 85q-115 -91 -426 -91t-512 193.5t-201 506.5t200 507.5t515.5 194.5t427 -91t111.5 -163.5t-48 -129t-105.5 -56.5t-182 44t-186.5 44q-336 0 -336 -349t336 -349q62 0 186.5 44t182 44t105.5 -56.5t48 -129t-115 -163.5z" />
    <glyph glyph-name="D" unicode="D" horiz-adv-x="1203" 
d="M650 6h-402q-198 0 -198 174v1002q0 174 198 174h402q331 -38 456 -366q62 -153 62 -309.5t-62 -308.5q-125 -328 -456 -366zM518 1084h-72v-800l72 -2q284 30 283 411t-283 391z" />
    <glyph glyph-name="D" unicode="d" horiz-adv-x="1203" 
d="M650 6h-402q-198 0 -198 174v1002q0 174 198 174h402q331 -38 456 -366q62 -153 62 -309.5t-62 -308.5q-125 -328 -456 -366zM518 1084h-72v-800l72 -2q284 30 283 411t-283 391z" />
    <glyph glyph-name="E" unicode="E" horiz-adv-x="932" 
d="M728 6q154 0 154 159t-154 159h-282v200h242q154 0 154 160t-154 160h-242v194h282q154 0 154 159t-154 159h-480q-198 0 -198 -174v-1002q0 -174 198 -174h480z" />
    <glyph glyph-name="E" unicode="e" horiz-adv-x="932" 
d="M728 6q154 0 154 159t-154 159h-282v200h242q154 0 154 160t-154 160h-242v194h282q154 0 154 159t-154 159h-480q-198 0 -198 -174v-1002q0 -174 198 -174h480z" />
    <glyph glyph-name="F" unicode="F" horiz-adv-x="932" 
d="M446 180v344h242q154 0 154 160t-154 160h-242v194h282q154 0 154 159t-154 159h-480q-198 0 -198 -174v-1002q0 -175 198 -174t198 174z" />
    <glyph glyph-name="F" unicode="f" horiz-adv-x="932" 
d="M446 180v344h242q154 0 154 160t-154 160h-242v194h282q154 0 154 159t-154 159h-480q-198 0 -198 -174v-1002q0 -175 198 -174t198 174z" />
    <glyph glyph-name="G" unicode="G" horiz-adv-x="1352" 
d="M1164 834h-300q-180 0 -180 -168t180 -168h62q4 -14 4 -28q0 -120 -157 -122t-248 96t-91 249.5t77.5 252t238.5 98.5t256.5 -50.5t146 -48.5t103 60.5t50.5 137.5t-148.5 165t-427 88t-480.5 -194.5t-200 -507.5t201 -506.5t502 -193.5t433 84t132 208v366
q0 182 -154 182z" />
    <glyph glyph-name="G" unicode="g" horiz-adv-x="1352" 
d="M1164 834h-300q-180 0 -180 -168t180 -168h62q4 -14 4 -28q0 -120 -157 -122t-248 96t-91 249.5t77.5 252t238.5 98.5t256.5 -50.5t146 -48.5t103 60.5t50.5 137.5t-148.5 165t-427 88t-480.5 -194.5t-200 -507.5t201 -506.5t502 -193.5t433 84t132 208v366
q0 182 -154 182z" />
    <glyph glyph-name="H" unicode="H" horiz-adv-x="1162" 
d="M1112 1182v-1002q0 -174 -198 -174t-198 174v344h-270v-344q0 -174 -198 -174t-198 174v1002q0 174 198 174t198 -174v-338h270v338q0 174 198 174t198 -174z" />
    <glyph glyph-name="H" unicode="h" horiz-adv-x="1162" 
d="M1112 1182v-1002q0 -174 -198 -174t-198 174v344h-270v-344q0 -174 -198 -174t-198 174v1002q0 174 198 174t198 -174v-338h270v338q0 174 198 174t198 -174z" />
    <glyph glyph-name="I" unicode="I" horiz-adv-x="496" 
d="M446 180q0 -174 -198 -174t-198 174v1002q0 174 198 174t198 -174v-1002z" />
    <glyph glyph-name="I" unicode="&#x131;" horiz-adv-x="496" 
d="M446 180q0 -174 -198 -174t-198 174v1002q0 174 198 174t198 -174v-1002z" />
    <glyph glyph-name="I" unicode="i" horiz-adv-x="496" 
d="M446 180q0 -174 -198 -174t-198 174v1002q0 174 198 174t198 -174v-1002z" />
    <glyph glyph-name="J" unicode="J" horiz-adv-x="1020" 
d="M984 372q0 -193 -131 -285.5t-318 -92.5t-332.5 81.5t-152.5 240.5q-7 173 198 174q148 1 186 -104q12 -49 83 -50t71 94v752q0 174 198 174t198 -174v-810z" />
    <glyph glyph-name="J" unicode="j" horiz-adv-x="1020" 
d="M984 372q0 -193 -131 -285.5t-318 -92.5t-332.5 81.5t-152.5 240.5q-7 173 198 174q148 1 186 -104q12 -49 83 -50t71 94v752q0 174 198 174t198 -174v-810z" />
    <glyph glyph-name="K" unicode="K" horiz-adv-x="1243" 
d="M812 684l326 -360q70 -78 70 -143t-61.5 -120t-132 -55t-146.5 82l-422 458v-366q0 -174 -198 -174t-198 174v1002q0 174 198 174t198 -174v-362l422 456q77 83 146.5 83t131 -54.5t61.5 -120.5t-69 -142z" />
    <glyph glyph-name="K" unicode="k" horiz-adv-x="1243" 
d="M812 684l326 -360q70 -78 70 -143t-61.5 -120t-132 -55t-146.5 82l-422 458v-366q0 -174 -198 -174t-198 174v1002q0 174 198 174t198 -174v-362l422 456q77 83 146.5 83t131 -54.5t61.5 -120.5t-69 -142z" />
    <glyph glyph-name="L" unicode="L" horiz-adv-x="930" 
d="M756 6h-508q-198 0 -198 174v1002q0 174 198 174t198 -174v-858h310q124 0 124 -159t-124 -159z" />
    <glyph glyph-name="L" unicode="l" horiz-adv-x="930" 
d="M756 6h-508q-198 0 -198 174v1002q0 174 198 174t198 -174v-858h310q124 0 124 -159t-124 -159z" />
    <glyph glyph-name="M" unicode="M" horiz-adv-x="1420" 
d="M710 940l278 334q68 82 184 82q198 0 198 -174v-1002q0 -174 -198 -174t-198 174v552l-264 -310l-264 308v-550q0 -174 -198 -174t-198 174v1002q0 177 198 174q114 -1 182 -82z" />
    <glyph glyph-name="M" unicode="m" horiz-adv-x="1420" 
d="M710 940l278 334q68 82 184 82q198 0 198 -174v-1002q0 -174 -198 -174t-198 174v552l-264 -310l-264 308v-550q0 -174 -198 -174t-198 174v1002q0 177 198 174q114 -1 182 -82z" />
    <glyph glyph-name="N" unicode="N" horiz-adv-x="1312" 
d="M866 754v428q0 174 198 174t198 -174v-1002q0 -174 -198 -174q-110 0 -174 76l-444 528v-430q0 -174 -198 -174t-198 174v1002q0 173 198 174q127 1 182 -82z" />
    <glyph glyph-name="N" unicode="n" horiz-adv-x="1312" 
d="M866 754v428q0 174 198 174t198 -174v-1002q0 -174 -198 -174q-110 0 -174 76l-444 528v-430q0 -174 -198 -174t-198 174v1002q0 173 198 174q127 1 182 -82z" />
    <glyph glyph-name="O" unicode="O" 
d="M1277 187.5q-203 -193.5 -514 -193.5t-512 193.5t-201 506.5t200 507.5t515.5 194.5t515 -194.5t199.5 -507.5t-203 -506.5zM766 1044q-150 0 -241 -99.5t-91 -251t91 -249.5t240.5 -98t240 99t90.5 250t-90 250t-240 99z" />
    <glyph glyph-name="O" unicode="o" 
d="M1277 187.5q-203 -193.5 -514 -193.5t-512 193.5t-201 506.5t200 507.5t515.5 194.5t515 -194.5t199.5 -507.5t-203 -506.5zM766 1044q-150 0 -241 -99.5t-91 -251t91 -249.5t240.5 -98t240 99t90.5 250t-90 250t-240 99z" />
    <glyph glyph-name="P" unicode="P" horiz-adv-x="1118" 
d="M648 456q191 0 311 135t124.5 316.5t-108 313t-279.5 131.5h-448q-198 0 -198 -174v-998q0 -174 198 -174t198 174v276h202zM560 1084q168 0 168 -154t-168 -154h-114v308h114z" />
    <glyph glyph-name="P" unicode="p" horiz-adv-x="1118" 
d="M648 456q191 0 311 135t124.5 316.5t-108 313t-279.5 131.5h-448q-198 0 -198 -174v-998q0 -174 198 -174t198 174v276h202zM560 1084q168 0 168 -154t-168 -154h-114v308h114z" />
    <glyph glyph-name="Q" unicode="Q" 
d="M1028 584l38 -46q30 68 30 187.5t-89.5 219t-240.5 99.5t-241.5 -100t-90.5 -251t91.5 -249t240.5 -98l-48 54q-34 39 -34 95t74.5 115.5t136.5 59.5t133 -86zM1376 196q37 -49 37 -108t-78 -119t-143 -60t-120 67l-48 58q-118 -40 -258 -40q-313 0 -514.5 193
t-201.5 506.5t200 508t517 194.5t515 -195.5t198 -490t-148 -466.5z" />
    <glyph glyph-name="Q" unicode="q" 
d="M1028 584l38 -46q30 68 30 187.5t-89.5 219t-240.5 99.5t-241.5 -100t-90.5 -251t91.5 -249t240.5 -98l-48 54q-34 39 -34 95t74.5 115.5t136.5 59.5t133 -86zM1376 196q37 -49 37 -108t-78 -119t-143 -60t-120 67l-48 58q-118 -40 -258 -40q-313 0 -514.5 193
t-201.5 506.5t200 508t517 194.5t515 -195.5t198 -490t-148 -466.5z" />
    <glyph glyph-name="R" unicode="R" horiz-adv-x="1157" 
d="M880 580l198 -260q44 -58 44 -124t-80 -127.5t-147 -61.5t-127 81l-322 430v-338q0 -174 -198 -174t-198 174v1002q0 174 198 174h448q166 0 276 -127.5t110 -273.5q0 -261 -202 -375zM446 1084v-308h114q168 0 168 154t-168 154h-114z" />
    <glyph glyph-name="R" unicode="r" horiz-adv-x="1157" 
d="M880 580l198 -260q44 -58 44 -124t-80 -127.5t-147 -61.5t-127 81l-322 430v-338q0 -174 -198 -174t-198 174v1002q0 174 198 174h448q166 0 276 -127.5t110 -273.5q0 -261 -202 -375zM446 1084v-308h114q168 0 168 154t-168 154h-114z" />
    <glyph glyph-name="S" unicode="S" horiz-adv-x="1076" 
d="M231 63q-181 61 -181 218t142 157q21 0 167 -55t252.5 -55t106.5 90q0 59 -73 98.5t-203.5 82.5t-163.5 65q-152 101 -152 294.5t127 313.5q124 118 293 118t294 -37q234 -74 188.5 -218.5t-166.5 -134.5q-11 0 -120 41t-193.5 41t-84.5 -83q0 -53 71.5 -91.5t201.5 -84
t165 -69.5q154 -104 154 -309.5t-132 -325.5q-127 -117 -319.5 -117t-373.5 61z" />
    <glyph glyph-name="S" unicode="s" horiz-adv-x="1076" 
d="M231 63q-181 61 -181 218t142 157q21 0 167 -55t252.5 -55t106.5 90q0 59 -73 98.5t-203.5 82.5t-163.5 65q-152 101 -152 294.5t127 313.5q124 118 293 118t294 -37q234 -74 188.5 -218.5t-166.5 -134.5q-11 0 -120 41t-193.5 41t-84.5 -83q0 -53 71.5 -91.5t201.5 -84
t165 -69.5q154 -104 154 -309.5t-132 -325.5q-127 -117 -319.5 -117t-373.5 61z" />
    <glyph glyph-name="T" unicode="T" horiz-adv-x="1188" 
d="M806 1038v-860q0 -174 -198 -174t-198 174v860h-200q-160 0 -160 159t160 159h798q160 0 160 -159t-160 -159h-202z" />
    <glyph glyph-name="T" unicode="t" horiz-adv-x="1188" 
d="M806 1038v-860q0 -174 -198 -174t-198 174v860h-200q-160 0 -160 159t160 159h798q160 0 160 -159t-160 -159h-202z" />
    <glyph glyph-name="U" unicode="U" horiz-adv-x="1164" 
d="M1114 372q0 -191 -162.5 -283.5t-369.5 -92.5t-369.5 92.5t-162.5 283.5v810q0 174 198 174t198 -174v-752q0 -114 136 -114t136 114v752q0 174 198 174t198 -174v-810z" />
    <glyph glyph-name="U" unicode="u" horiz-adv-x="1164" 
d="M1114 372q0 -191 -162.5 -283.5t-369.5 -92.5t-369.5 92.5t-162.5 283.5v810q0 174 198 174t198 -174v-752q0 -114 136 -114t136 114v752q0 174 198 174t198 -174v-810z" />
    <glyph glyph-name="V" unicode="V" horiz-adv-x="1328" 
d="M515 144l-414 902q-30 65 -30 118.5t39 125.5t162.5 71t186.5 -139l242 -528l240 528q63 138 186.5 139t162.5 -71t39 -125.5t-30 -118.5l-414 -902q-65 -142 -184 -142t-186 142z" />
    <glyph glyph-name="V" unicode="v" horiz-adv-x="1328" 
d="M515 144l-414 902q-30 65 -30 118.5t39 125.5t162.5 71t186.5 -139l242 -528l240 528q63 138 186.5 139t162.5 -71t39 -125.5t-30 -118.5l-414 -902q-65 -142 -184 -142t-186 142z" />
    <glyph glyph-name="W" unicode="W" horiz-adv-x="1698" 
d="M1021 144l-120 262l-120 -262q-65 -142 -186.5 -142t-191.5 142l-292 902q-23 71 -23 133t47.5 122.5t169 59.5t166.5 -139l150 -464l94 204q65 140 188 140t186 -140l92 -204l152 464q45 138 165.5 139t169 -60t48.5 -123t-23 -132l-294 -902q-70 -142 -193 -142
t-185 142z" />
    <glyph glyph-name="W" unicode="w" horiz-adv-x="1698" 
d="M1021 144l-120 262l-120 -262q-65 -142 -186.5 -142t-191.5 142l-292 902q-23 71 -23 133t47.5 122.5t169 59.5t166.5 -139l150 -464l94 204q65 140 188 140t186 -140l92 -204l152 464q45 138 165.5 139t169 -60t48.5 -123t-23 -132l-294 -902q-70 -142 -193 -142
t-185 142z" />
    <glyph glyph-name="X" unicode="X" horiz-adv-x="1416" 
d="M986 672l370 -392q40 -54 40 -114.5t-59.5 -109.5t-147 -51.5t-141.5 55.5l-326 348l-326 -348q-56 -60 -142 -57.5t-145 52.5t-59 110.5t40 114.5l368 392l-368 402q-40 54 -40 116t58.5 113.5t145 55t142.5 -58.5l326 -358l326 358q55 60 142.5 57.5t146.5 -53.5
t59 -113.5t-40 -116.5z" />
    <glyph glyph-name="X" unicode="x" horiz-adv-x="1416" 
d="M986 672l370 -392q40 -54 40 -114.5t-59.5 -109.5t-147 -51.5t-141.5 55.5l-326 348l-326 -348q-56 -60 -142 -57.5t-145 52.5t-59 110.5t40 114.5l368 392l-368 402q-40 54 -40 116t58.5 113.5t145 55t142.5 -58.5l326 -358l326 358q55 60 142.5 57.5t146.5 -53.5
t59 -113.5t-40 -116.5z" />
    <glyph glyph-name="Y" unicode="Y" horiz-adv-x="1346" 
d="M696 926l222 292q97 128 216 128t159.5 -64.5t40.5 -116t-36 -123.5l-408 -532v-330q0 -174 -198 -174t-198 174v330l-400 532q-36 72 -36 123.5t40.5 116t159.5 64.5t216 -128z" />
    <glyph glyph-name="Y" unicode="y" horiz-adv-x="1346" 
d="M696 926l222 292q97 128 216 128t159.5 -64.5t40.5 -116t-36 -123.5l-408 -532v-330q0 -174 -198 -174t-198 174v330l-400 532q-36 72 -36 123.5t40.5 116t159.5 64.5t216 -128z" />
    <glyph glyph-name="Z" unicode="Z" horiz-adv-x="1128" 
d="M580 1040h-396q-128 0 -128 158t126 158h778q148 0 148 -160q0 -134 -78 -222l-438 -650h382q128 0 128 -159t-126 -159h-778q-148 0 -148 162q0 136 78 222z" />
    <glyph glyph-name="Z" unicode="z" horiz-adv-x="1128" 
d="M580 1040h-396q-128 0 -128 158t126 158h778q148 0 148 -160q0 -134 -78 -222l-438 -650h382q128 0 128 -159t-126 -159h-778q-148 0 -148 162q0 136 78 222z" />
    <glyph glyph-name="bracketleft" unicode="[" horiz-adv-x="619" 
d="M386 214q173 0 173 -159t-160 -159h-188q-171 0 -171 174v1152q0 194 171 194h188q160 0 160 -159t-173 -159v-884z" />
    <glyph glyph-name="backslash" unicode="\" horiz-adv-x="977" 
d="M341 8q75 -157 230.5 -82t80.5 232l-550 1135q-75 157 -230.5 82t-79.5 -232z" />
    <glyph glyph-name="bracketright" unicode="]" horiz-adv-x="619" 
d="M389 1416q171 0 171 -174v-1152q0 -194 -173 -194h-186q-160 -1 -160 159q0 158 173 159v884q-173 -1 -173 158t160 160h188z" />
    <glyph glyph-name="asciicircum" unicode="^" horiz-adv-x="800" 
d="M420 1270l141 -289q21 -57 -9.5 -97t-107 -44t-127.5 61l-99 200l-99 -200q-50 -65 -127 -61t-107.5 43.5t-9.5 97.5l149 288q44 97 197.5 97t198.5 -96z" />
    <glyph glyph-name="underscore" unicode="_" horiz-adv-x="1338" 
d="M36 5q-160 0 -160 159t160 159h918q160 0 160 -159t-160 -159h-918z" />
    <glyph glyph-name="grave" unicode="`" horiz-adv-x="492" 
d="M351 1257q48 -79 87.5 -170.5t-27.5 -142.5t-156 -1t-160 110t-64 141t65 128t132.5 30.5t122.5 -95.5z" />
    <glyph glyph-name="braceleft" unicode="{" horiz-adv-x="711" 
d="M410 227q97 -36 123 -55.5t26 -169.5t-209.5 -131t-234.5 257.5t-120 381.5t0 286t113 381.5t234.5 284t216.5 -120.5t-26.5 -186t-122.5 -55q-25 -223 -140 -446q115 -224 140 -427z" />
    <glyph glyph-name="bar" unicode="|" horiz-adv-x="446" 
d="M396 70q0 -174 -173 -174t-173 174v1152q0 194 173 194t173 -194v-1152z" />
    <glyph glyph-name="braceright" unicode="}" horiz-adv-x="710" 
d="M96 1111q-97 36 -123 55.5t-26 169.5t209.5 131t234.5 -257.5t120 -381.5t0 -286t-113 -381.5t-234.5 -284t-216.5 120.5t26.5 186t122.5 55q25 223 140 446q-115 224 -140 427z" />
    <glyph glyph-name="asciitilde" unicode="~" horiz-adv-x="988" 
d="M196 515q-160 -40 -160 119t188.5 219t290.5 -20t279 0q160 40 160 -119t-188.5 -219t-290.5 20t-279 0z" />
    <glyph glyph-name="exclamdown" unicode="&#xa1;" horiz-adv-x="496" 
d="M257.5 937q89.5 0 144 59.5t54.5 150.5t-54.5 149.5t-144 58.5t-143.5 -59.5t-54 -149.5t54 -149.5t143.5 -59.5zM60 680q0 174 198 174t198 -174v-501q0 -174 -197.5 -174.5t-197.5 173.5z" />
    <glyph glyph-name="cent" unicode="&#xa2;" horiz-adv-x="962" 
d="M832.5 259.5q-80.5 -63.5 -298.5 -63.5t-358.5 135.5t-140.5 354.5t140 355t361 136t299 -63.5t78 -114.5t-33.5 -90.5t-74 -39.5t-127.5 31t-131 31q-235 0 -235 -244.5t235 -244.5q44 0 131 31t127.5 31t74 -39.5t33.5 -90.5t-80.5 -114.5zM686 90q0 -154 -138 -154
t-138 154v1192q0 174 138 174t138 -174v-1192z" />
    <glyph glyph-name="sterling" unicode="&#xa3;" horiz-adv-x="1604" 
d="M938 1429q206 -88 329.5 -274t123.5 -409q0 -152 -59 -290q-85 -206 -272 -329t-412 -123q-149 0 -288 58q-206 84 -329.5 271.5t-123.5 412.5q0 153 58 288q88 206 274 329.5t409 123.5q154 0 290 -58zM983 1243q10 2 13 10q2 8 -3 15q-52 90 -239 111q-34 2 -68 2
q-141 0 -261 -62q-173 -93 -199 -247q-2 -12 0 -20q5 -8 19 -3q357 124 738 194zM866 1419q-103 32 -211 32q-223 0 -399.5 -119t-260.5 -323q-52 -131 -52 -259q0 -213 115 -393t309 -263q129 -56 279 -56q364 0 578 295q48 65 76 135l-118 66q-164 -369 -527 -374
q-293 -10 -465.5 176t-172.5 439q0 206 110 370.5t298 240.5q131 53 274 53q78 0 167 -20zM1099 585q-362 -99 -715 -227l-9 -5q-5 -3 -5 -8q-10 -22 57 -53q51 -22 91 -33q123 -27 252 3q240 59 331 249q18 36 20 50q4 13 -3 19.5t-19 4.5zM295 1103q-11 0 -11 14
q0 15 16 46q55 108 163 156q-118 -74 -153 -204q-3 -12 -15 -12zM875 1257l-30 -9l-38 -8q40 13 38 43q0 10 -12 22q-46 48 -166 58q55 4 132 -15q99 -24 96 -67q0 -13 -20 -24zM842 310q129 73 176 201q8 23 26 18q7 -2 9 -11q5 -7 0 -17q-62 -134 -211 -191zM1144 1246
l-35 -7q-37 -11 -36 -43l4 -203l37 10q35 10 34 42zM905 1167q-10 12 -33 6l-36 -6l5 -239l36 7q35 9 35 41l-2 68l82 -64q12 -10 32 -5q36 10 34 42l-3 206l-36 -10q-36 -10 -36 -43l2 -66zM577 863q24 30 23 69t-28 54q-6 3 -30 4.5t-37 5.5t-13 15q-2 24 70 18
q27 -1 36 59q-54 11 -89.5 0.5t-56.5 -39.5q-23 -30 -23 -68t28 -49q6 -5 29.5 -6t37 -4t13.5 -14q1 -11 -24 -20.5t-82 1.5q-12 -16 -11.5 -43t33 -29.5t67.5 7.5t57 39zM700 989l15 47l17 -39zM754 943l7 -17q10 -23 31.5 -17t30 21.5t8.5 26.5t-5 19l-78 146
q-12 22 -36 16l-23 -6l-81 -216q-4 -12 -3.5 -22.5t9.5 -21t30.5 -5t29.5 33.5l6 21zM165 976l-36 -11q-35 -14 -34 -48l5 -217l34 10q37 13 36 45zM253 989q-10 12 -34 8l-36 -12l5 -248l36 10q35 10 35 41l-1 80l82 -75q11 -11 31 -6q36 11 36 43l-5 224l-36 -10
q-36 -10 -36 -42l3 -86zM388 680q39 11 38 52.5t-40 33.5q-132 -36 -237 -82l1 -34q1 -43 41 -32l49 21l5 -274l49 18q49 20 49 58l-5 225zM539 776q-26 26 -55.5 18t-38.5 -27t-9 -32.5t10 -29.5l102 -107l1 -88l1 -46l49 18q48 18 47 56l-1 87l93 166q13 33 -2 53.5
t-44.5 14t-51.5 -49.5l-48 -88zM905 684q47 14 75.5 56t28.5 89t-28 71.5t-70 16.5q-80 -17 -160 -45l8 -343l49 14q49 17 48 58l-1 70zM879 839q42 10 42.5 -29t-41.5 -51l-27 -7l-2 78zM1193 645q38 11 37 50l-1 41l-108 -31l-1 52l60 16q38 11 38 51l-1 41l-98 -27l-2 49
l70 19q38 11 38 51l-1 40q-103 -23 -205 -55l6 -339z" />
    <glyph glyph-name="currency" unicode="&#xa4;" horiz-adv-x="1477" 
d="M983 1183q10 2 13 10q2 8 -3 15q-52 90 -239 111q-34 2 -68 2q-141 0 -261 -62q-173 -93 -199 -247q-2 -12 0 -20q5 -8 19 -3q357 124 738 194zM866 1359q-103 32 -211 32q-223 0 -399.5 -119t-260.5 -323q-52 -131 -52 -259q0 -213 115 -393t309 -263q129 -56 279 -56
q364 0 578 295q48 65 76 135l-118 66q-164 -369 -527 -374q-293 -10 -465.5 176t-172.5 439q0 206 110 370.5t298 240.5q131 53 274 53q78 0 167 -20zM1099 525q-362 -99 -715 -227l-9 -5q-5 -3 -5 -8q-10 -22 57 -53q51 -22 91 -33q123 -27 252 3q240 59 331 249
q18 36 20 50q4 13 -3 19.5t-19 4.5zM295 1043q-11 0 -11 14q0 15 16 46q55 108 163 156q-118 -74 -153 -204q-3 -12 -15 -12zM875 1197l-30 -9l-38 -8q40 13 38 43q0 10 -12 22q-46 48 -166 58q55 4 132 -15q99 -24 96 -67q0 -13 -20 -24zM842 250q129 73 176 201
q8 23 26 18q7 -2 9 -11q5 -7 0 -17q-62 -134 -211 -191zM1141 1186l-35 -7q-37 -11 -36 -43l4 -203l37 10q35 10 34 42zM902 1107q-10 12 -33 6l-36 -6l5 -239l36 7q35 9 35 41l-2 68l82 -64q12 -10 32 -5q36 10 34 42l-3 206l-36 -10q-36 -10 -36 -43l2 -66zM574 803
q24 30 23 69t-28 54q-6 3 -30 4.5t-37 5.5t-13 15q-2 24 70 18q27 -1 36 59q-54 11 -89.5 0.5t-56.5 -39.5q-23 -30 -23 -68t28 -49q6 -5 29.5 -6t37 -4t13.5 -14q1 -11 -24 -20.5t-82 1.5q-12 -16 -11.5 -43t33 -29.5t67.5 7.5t57 39zM697 929l15 47l17 -39zM751 883l7 -17
q10 -23 31.5 -17t30 21.5t8.5 26.5t-5 19l-78 146q-12 22 -36 16l-23 -6l-81 -216q-4 -12 -3.5 -22.5t9.5 -21t30.5 -5t29.5 33.5l6 21zM162 916l-36 -11q-35 -14 -34 -48l5 -217l34 10q37 13 36 45zM250 929q-10 12 -34 8l-36 -12l5 -248l36 10q35 10 35 41l-1 80l82 -75
q11 -11 31 -6q36 11 36 43l-5 224l-36 -10q-36 -10 -36 -42l3 -86zM388 620q39 11 38 52.5t-40 33.5q-132 -36 -237 -82l1 -34q1 -43 41 -32l49 21l5 -274l49 18q49 20 49 58l-5 225zM539 716q-26 26 -55.5 18t-38.5 -27t-9 -32.5t10 -29.5l102 -107l1 -88l1 -46l49 18
q48 18 47 56l-1 87l93 166q13 33 -2 53.5t-44.5 14t-51.5 -49.5l-48 -88zM905 624q47 14 75.5 56t28.5 89t-28 71.5t-70 16.5q-80 -17 -160 -45l8 -343l49 14q49 17 48 58l-1 70zM879 779q42 10 42.5 -29t-41.5 -51l-27 -7l-2 78zM1193 585q38 11 37 50l-1 41l-108 -31
l-1 52l60 16q38 11 38 51l-1 41l-98 -27l-2 49l70 19q38 11 38 51l-1 40q-103 -23 -205 -55l6 -339z" />
    <glyph glyph-name="yen" unicode="&#xa5;" horiz-adv-x="1346" 
d="M700 926l222 292q97 128 216 128t159.5 -64.5t40.5 -116t-36 -123.5l-408 -532v-330q0 -174 -198 -174t-198 174v330l-400 532q-36 72 -36 123.5t40.5 116t159.5 64.5t216 -128zM401 390q-160 0 -160 104t160 104h599q160 0 160 -104t-160 -104h-599zM401 125
q-160 0 -160 104t160 104h599q160 0 160 -104t-160 -104h-599z" />
    <glyph glyph-name="brokenbar" unicode="&#xa6;" horiz-adv-x="446" 
d="M396 880q0 -174 -173 -174t-173 174v342q0 194 173 194t173 -194v-342zM396 70q0 -174 -173 -174t-173 174v342q0 194 173 194t173 -194v-342z" />
    <glyph glyph-name="section" unicode="&#xa7;" horiz-adv-x="1604" 
d="M938 1429q206 -88 329.5 -274t123.5 -409q0 -152 -59 -290q-85 -206 -272 -329t-412 -123q-149 0 -288 58q-206 84 -329.5 271.5t-123.5 412.5q0 153 58 288q88 206 274 329.5t409 123.5q154 0 290 -58zM983 1243q10 2 13 10q2 8 -3 15q-52 90 -239 111q-34 2 -68 2
q-141 0 -261 -62q-173 -93 -199 -247q-2 -12 0 -20q5 -8 19 -3q357 124 738 194zM866 1419q-103 32 -211 32q-223 0 -399.5 -119t-260.5 -323q-52 -131 -52 -259q0 -213 115 -393t309 -263q129 -56 279 -56q364 0 578 295q48 65 76 135l-118 66q-164 -369 -527 -374
q-293 -10 -465.5 176t-172.5 439q0 206 110 370.5t298 240.5q131 53 274 53q78 0 167 -20zM1099 585q-362 -99 -715 -227l-9 -5q-5 -3 -5 -8q-10 -22 57 -53q51 -22 91 -33q123 -27 252 3q240 59 331 249q18 36 20 50q4 13 -3 19.5t-19 4.5zM295 1103q-11 0 -11 14
q0 15 16 46q55 108 163 156q-118 -74 -153 -204q-3 -12 -15 -12zM875 1257l-30 -9l-38 -8q40 13 38 43q0 10 -12 22q-46 48 -166 58q55 4 132 -15q99 -24 96 -67q0 -13 -20 -24zM842 310q129 73 176 201q8 23 26 18q7 -2 9 -11q5 -7 0 -17q-62 -134 -211 -191zM1144 1246
l-35 -7q-37 -11 -36 -43l4 -203l37 10q35 10 34 42zM905 1167q-10 12 -33 6l-36 -6l5 -239l36 7q35 9 35 41l-2 68l82 -64q12 -10 32 -5q36 10 34 42l-3 206l-36 -10q-36 -10 -36 -43l2 -66zM577 863q24 30 23 69t-28 54q-6 3 -30 4.5t-37 5.5t-13 15q-2 24 70 18
q27 -1 36 59q-54 11 -89.5 0.5t-56.5 -39.5q-23 -30 -23 -68t28 -49q6 -5 29.5 -6t37 -4t13.5 -14q1 -11 -24 -20.5t-82 1.5q-12 -16 -11.5 -43t33 -29.5t67.5 7.5t57 39zM700 989l15 47l17 -39zM754 943l7 -17q10 -23 31.5 -17t30 21.5t8.5 26.5t-5 19l-78 146
q-12 22 -36 16l-23 -6l-81 -216q-4 -12 -3.5 -22.5t9.5 -21t30.5 -5t29.5 33.5l6 21zM165 976l-36 -11q-35 -14 -34 -48l5 -217l34 10q37 13 36 45zM253 989q-10 12 -34 8l-36 -12l5 -248l36 10q35 10 35 41l-1 80l82 -75q11 -11 31 -6q36 11 36 43l-5 224l-36 -10
q-36 -10 -36 -42l3 -86zM388 680q39 11 38 52.5t-40 33.5q-132 -36 -237 -82l1 -34q1 -43 41 -32l49 21l5 -274l49 18q49 20 49 58l-5 225zM539 776q-26 26 -55.5 18t-38.5 -27t-9 -32.5t10 -29.5l102 -107l1 -88l1 -46l49 18q48 18 47 56l-1 87l93 166q13 33 -2 53.5
t-44.5 14t-51.5 -49.5l-48 -88zM905 684q47 14 75.5 56t28.5 89t-28 71.5t-70 16.5q-80 -17 -160 -45l8 -343l49 14q49 17 48 58l-1 70zM879 839q42 10 42.5 -29t-41.5 -51l-27 -7l-2 78zM1193 645q38 11 37 50l-1 41l-108 -31l-1 52l60 16q38 11 38 51l-1 41l-98 -27l-2 49
l70 19q38 11 38 51l-1 40q-103 -23 -205 -55l6 -339z" />
    <glyph glyph-name="dieresis" unicode="&#xa8;" horiz-adv-x="996" 
d="M258.5 1356q-89.5 0 -144 -59.5t-54.5 -150.5t54.5 -149.5t144 -58.5t143.5 59.5t54 149.5t-54 149.5t-143.5 59.5zM758.5 1356q-89.5 0 -144 -59.5t-54.5 -150.5t54.5 -149.5t144 -58.5t143.5 59.5t54 149.5t-54 149.5t-143.5 59.5z" />
    <glyph glyph-name="copyright" unicode="&#xa9;" horiz-adv-x="1246" 
d="M889 263q-167 -166 -422.5 -166t-421 166t-165.5 434t164.5 435t424 167t423.5 -167t164 -435t-167 -434zM470 1162q-199 0 -319.5 -132t-120.5 -332.5t120.5 -330.5t319 -130t318 131t119.5 331.5t-119 331.5t-318 131zM684.5 408q-54.5 -43 -202.5 -43t-243.5 91.5
t-95.5 240.5t95 241.5t245 92.5t203 -43.5t53 -78t-22.5 -61t-50 -26.5t-86.5 21t-89 21q-159 0 -159 -166t159 -166q30 0 89 21t86.5 21t50 -27t22.5 -61.5t-54.5 -77.5z" />
    <glyph glyph-name="ordfeminine" unicode="&#xaa;" horiz-adv-x="1477" 
d="M983 1183q10 2 13 10q2 8 -3 15q-52 90 -239 111q-34 2 -68 2q-141 0 -261 -62q-173 -93 -199 -247q-2 -12 0 -20q5 -8 19 -3q357 124 738 194zM866 1359q-103 32 -211 32q-223 0 -399.5 -119t-260.5 -323q-52 -131 -52 -259q0 -213 115 -393t309 -263q129 -56 279 -56
q364 0 578 295q48 65 76 135l-118 66q-164 -369 -527 -374q-293 -10 -465.5 176t-172.5 439q0 206 110 370.5t298 240.5q131 53 274 53q78 0 167 -20zM1099 525q-362 -99 -715 -227l-9 -5q-5 -3 -5 -8q-10 -22 57 -53q51 -22 91 -33q123 -27 252 3q240 59 331 249
q18 36 20 50q4 13 -3 19.5t-19 4.5zM295 1043q-11 0 -11 14q0 15 16 46q55 108 163 156q-118 -74 -153 -204q-3 -12 -15 -12zM875 1197l-30 -9l-38 -8q40 13 38 43q0 10 -12 22q-46 48 -166 58q55 4 132 -15q99 -24 96 -67q0 -13 -20 -24zM842 250q129 73 176 201
q8 23 26 18q7 -2 9 -11q5 -7 0 -17q-62 -134 -211 -191zM1141 1186l-35 -7q-37 -11 -36 -43l4 -203l37 10q35 10 34 42zM902 1107q-10 12 -33 6l-36 -6l5 -239l36 7q35 9 35 41l-2 68l82 -64q12 -10 32 -5q36 10 34 42l-3 206l-36 -10q-36 -10 -36 -43l2 -66zM574 803
q24 30 23 69t-28 54q-6 3 -30 4.5t-37 5.5t-13 15q-2 24 70 18q27 -1 36 59q-54 11 -89.5 0.5t-56.5 -39.5q-23 -30 -23 -68t28 -49q6 -5 29.5 -6t37 -4t13.5 -14q1 -11 -24 -20.5t-82 1.5q-12 -16 -11.5 -43t33 -29.5t67.5 7.5t57 39zM697 929l15 47l17 -39zM751 883l7 -17
q10 -23 31.5 -17t30 21.5t8.5 26.5t-5 19l-78 146q-12 22 -36 16l-23 -6l-81 -216q-4 -12 -3.5 -22.5t9.5 -21t30.5 -5t29.5 33.5l6 21zM162 916l-36 -11q-35 -14 -34 -48l5 -217l34 10q37 13 36 45zM250 929q-10 12 -34 8l-36 -12l5 -248l36 10q35 10 35 41l-1 80l82 -75
q11 -11 31 -6q36 11 36 43l-5 224l-36 -10q-36 -10 -36 -42l3 -86zM388 620q39 11 38 52.5t-40 33.5q-132 -36 -237 -82l1 -34q1 -43 41 -32l49 21l5 -274l49 18q49 20 49 58l-5 225zM539 716q-26 26 -55.5 18t-38.5 -27t-9 -32.5t10 -29.5l102 -107l1 -88l1 -46l49 18
q48 18 47 56l-1 87l93 166q13 33 -2 53.5t-44.5 14t-51.5 -49.5l-48 -88zM905 624q47 14 75.5 56t28.5 89t-28 71.5t-70 16.5q-80 -17 -160 -45l8 -343l49 14q49 17 48 58l-1 70zM879 779q42 10 42.5 -29t-41.5 -51l-27 -7l-2 78zM1193 585q38 11 37 50l-1 41l-108 -31
l-1 52l60 16q38 11 38 51l-1 41l-98 -27l-2 49l70 19q38 11 38 51l-1 40q-103 -23 -205 -55l6 -339z" />
    <glyph glyph-name="guillemotleft" unicode="&#xab;" horiz-adv-x="1223" 
d="M167 648l301 235q79 34 138 5.5t67 -98.5t-103 -151l-206 -165l206 -163q111 -81 103 -151t-67 -99t-138 6l-301 246q-97 85 -97 168t97 167zM717 648l301 235q79 34 138 5.5t67 -98.5t-103 -151l-206 -165l206 -163q111 -81 103 -151t-67 -99t-138 6l-301 246
q-97 85 -97 168t97 167z" />
    <glyph glyph-name="logicalnot" unicode="&#xac;" horiz-adv-x="1088" 
d="M196 615q-160 0 -160 159t160 159h668q160 0 160 -159v-345q0 -172 -166 -172t-166 172v186h-496z" />
    <glyph glyph-name="registered" unicode="&#xae;" horiz-adv-x="1246" 
d="M889 263q-167 -166 -422.5 -166t-421 166t-165.5 434t164.5 435t424 167t423.5 -167t164 -435t-167 -434zM471 1159q-199 0 -319.5 -132t-120.5 -332.5t120.5 -330.5t319 -130t318 131t119.5 331.5t-119 331.5t-318 131zM633 648l97 -128q22 -29 22 -61.5t-39.5 -63
t-72.5 -30.5t-63 40l-159 213v-167q0 -86 -97.5 -86t-97.5 86v494q0 86 98 86h221q82 0 136 -63t54 -135q0 -129 -99 -185zM418 897v-152h57q83 0 83 76t-83 76h-57z" />
    <glyph glyph-name="degree" unicode="&#xb0;" horiz-adv-x="466" 
d="M350 1144q0 -45 -27.5 -75t-72.5 -30t-72.5 29.5t-27.5 75t27.5 75.5t72.5 30t72.5 -30t27.5 -75zM250.5 1353q-89.5 0 -144 -59.5t-54.5 -150.5t54.5 -149.5t144 -58.5t143.5 59.5t54 149.5t-54 149.5t-143.5 59.5z" />
    <glyph glyph-name="plusminus" unicode="&#xb1;" horiz-adv-x="1022" 
d="M200 875q-160 0 -160 159t160 159h140v140q0 160 159 160t159 -160v-140h140q160 0 160 -159t-160 -159h-140v-140q0 -160 -159 -160t-159 160v140h-140zM196 155q-160 0 -160 159t160 159h598q160 0 160 -159t-160 -159h-598z" />
    <glyph glyph-name="twosuperior" unicode="&#xb2;" horiz-adv-x="632" 
d="M760 790q229 200 243.5 348t-60.5 213.5t-184.5 65.5t-201 -34.5t-91.5 -93t27 -86t50.5 -27.5t82.5 30.5t137.5 21.5t41 -114.5t-287.5 -296.5q-58 -33 -58 -123t88 -90h399q74 0 74 93t-75 93h-185z" />
    <glyph glyph-name="threesuperior" unicode="&#xb3;" horiz-adv-x="632" 
d="M1197 624.5q-84 31.5 -84 88.5t21 86.5t54 29.5t89.5 -19t121.5 -16t68 57t-29.5 70.5t-80 10.5t-47.5 67t43.5 71.5t75 19.5t31.5 62.5t-22 63t-53 21.5t-78.5 -26t-78.5 -26t-50.5 31t-19.5 85.5t76 84t171.5 29.5t179 -47.5t83.5 -160t-95 -172.5q102 -60 102 -198.5
t-71 -191t-197 -52.5t-210 31.5z" />
    <glyph glyph-name="acute" unicode="&#xb4;" horiz-adv-x="492" 
d="M133.5 1257q-47.5 -79 -87.5 -170.5t27.5 -142.5t156 -1t159.5 110t64 141t-65 128t-132.5 30.5t-122 -95.5z" />
    <glyph glyph-name="paragraph" unicode="&#xb6;" horiz-adv-x="1604" 
d="M938 1429q206 -88 329.5 -274t123.5 -409q0 -152 -59 -290q-85 -206 -272 -329t-412 -123q-149 0 -288 58q-206 84 -329.5 271.5t-123.5 412.5q0 153 58 288q88 206 274 329.5t409 123.5q154 0 290 -58zM983 1243q10 2 13 10q2 8 -3 15q-52 90 -239 111q-34 2 -68 2
q-141 0 -261 -62q-173 -93 -199 -247q-2 -12 0 -20q5 -8 19 -3q357 124 738 194zM866 1419q-103 32 -211 32q-223 0 -399.5 -119t-260.5 -323q-52 -131 -52 -259q0 -213 115 -393t309 -263q129 -56 279 -56q364 0 578 295q48 65 76 135l-118 66q-164 -369 -527 -374
q-293 -10 -465.5 176t-172.5 439q0 206 110 370.5t298 240.5q131 53 274 53q78 0 167 -20zM1099 585q-362 -99 -715 -227l-9 -5q-5 -3 -5 -8q-10 -22 57 -53q51 -22 91 -33q123 -27 252 3q240 59 331 249q18 36 20 50q4 13 -3 19.5t-19 4.5zM295 1103q-11 0 -11 14
q0 15 16 46q55 108 163 156q-118 -74 -153 -204q-3 -12 -15 -12zM875 1257l-30 -9l-38 -8q40 13 38 43q0 10 -12 22q-46 48 -166 58q55 4 132 -15q99 -24 96 -67q0 -13 -20 -24zM842 310q129 73 176 201q8 23 26 18q7 -2 9 -11q5 -7 0 -17q-62 -134 -211 -191zM1144 1246
l-35 -7q-37 -11 -36 -43l4 -203l37 10q35 10 34 42zM905 1167q-10 12 -33 6l-36 -6l5 -239l36 7q35 9 35 41l-2 68l82 -64q12 -10 32 -5q36 10 34 42l-3 206l-36 -10q-36 -10 -36 -43l2 -66zM577 863q24 30 23 69t-28 54q-6 3 -30 4.5t-37 5.5t-13 15q-2 24 70 18
q27 -1 36 59q-54 11 -89.5 0.5t-56.5 -39.5q-23 -30 -23 -68t28 -49q6 -5 29.5 -6t37 -4t13.5 -14q1 -11 -24 -20.5t-82 1.5q-12 -16 -11.5 -43t33 -29.5t67.5 7.5t57 39zM700 989l15 47l17 -39zM754 943l7 -17q10 -23 31.5 -17t30 21.5t8.5 26.5t-5 19l-78 146
q-12 22 -36 16l-23 -6l-81 -216q-4 -12 -3.5 -22.5t9.5 -21t30.5 -5t29.5 33.5l6 21zM165 976l-36 -11q-35 -14 -34 -48l5 -217l34 10q37 13 36 45zM253 989q-10 12 -34 8l-36 -12l5 -248l36 10q35 10 35 41l-1 80l82 -75q11 -11 31 -6q36 11 36 43l-5 224l-36 -10
q-36 -10 -36 -42l3 -86zM388 680q39 11 38 52.5t-40 33.5q-132 -36 -237 -82l1 -34q1 -43 41 -32l49 21l5 -274l49 18q49 20 49 58l-5 225zM539 776q-26 26 -55.5 18t-38.5 -27t-9 -32.5t10 -29.5l102 -107l1 -88l1 -46l49 18q48 18 47 56l-1 87l93 166q13 33 -2 53.5
t-44.5 14t-51.5 -49.5l-48 -88zM905 684q47 14 75.5 56t28.5 89t-28 71.5t-70 16.5q-80 -17 -160 -45l8 -343l49 14q49 17 48 58l-1 70zM879 839q42 10 42.5 -29t-41.5 -51l-27 -7l-2 78zM1193 645q38 11 37 50l-1 41l-108 -31l-1 52l60 16q38 11 38 51l-1 41l-98 -27l-2 49
l70 19q38 11 38 51l-1 40q-103 -23 -205 -55l6 -339z" />
    <glyph glyph-name="cedilla" unicode="&#xb8;" horiz-adv-x="525" 
d="M207.5 -213q-32.5 7 -96 9t-54.5 79l34 176l206 -1l-25 -112q161 0 144 -170q-17 -103 -78.5 -146.5t-153.5 -43.5t-142 21t-50 66.5t21 74.5t41.5 29t53 -12.5t75.5 -12.5t50 18t-25.5 25z" />
    <glyph glyph-name="onesuperior" unicode="&#xb9;" horiz-adv-x="445" 
d="M135 705v505h-49q-92 0 -92 93.5t92 93.5h166q118 0 118 -102v-590q0 -103 -117.5 -102t-117.5 102z" />
    <glyph glyph-name="ordmasculine" unicode="&#xba;" horiz-adv-x="1477" 
d="M983 1183q10 2 13 10q2 8 -3 15q-52 90 -239 111q-34 2 -68 2q-141 0 -261 -62q-173 -93 -199 -247q-2 -12 0 -20q5 -8 19 -3q357 124 738 194zM866 1359q-103 32 -211 32q-223 0 -399.5 -119t-260.5 -323q-52 -131 -52 -259q0 -213 115 -393t309 -263q129 -56 279 -56
q364 0 578 295q48 65 76 135l-118 66q-164 -369 -527 -374q-293 -10 -465.5 176t-172.5 439q0 206 110 370.5t298 240.5q131 53 274 53q78 0 167 -20zM1099 525q-362 -99 -715 -227l-9 -5q-5 -3 -5 -8q-10 -22 57 -53q51 -22 91 -33q123 -27 252 3q240 59 331 249
q18 36 20 50q4 13 -3 19.5t-19 4.5zM295 1043q-11 0 -11 14q0 15 16 46q55 108 163 156q-118 -74 -153 -204q-3 -12 -15 -12zM875 1197l-30 -9l-38 -8q40 13 38 43q0 10 -12 22q-46 48 -166 58q55 4 132 -15q99 -24 96 -67q0 -13 -20 -24zM842 250q129 73 176 201
q8 23 26 18q7 -2 9 -11q5 -7 0 -17q-62 -134 -211 -191zM1141 1186l-35 -7q-37 -11 -36 -43l4 -203l37 10q35 10 34 42zM902 1107q-10 12 -33 6l-36 -6l5 -239l36 7q35 9 35 41l-2 68l82 -64q12 -10 32 -5q36 10 34 42l-3 206l-36 -10q-36 -10 -36 -43l2 -66zM574 803
q24 30 23 69t-28 54q-6 3 -30 4.5t-37 5.5t-13 15q-2 24 70 18q27 -1 36 59q-54 11 -89.5 0.5t-56.5 -39.5q-23 -30 -23 -68t28 -49q6 -5 29.5 -6t37 -4t13.5 -14q1 -11 -24 -20.5t-82 1.5q-12 -16 -11.5 -43t33 -29.5t67.5 7.5t57 39zM697 929l15 47l17 -39zM751 883l7 -17
q10 -23 31.5 -17t30 21.5t8.5 26.5t-5 19l-78 146q-12 22 -36 16l-23 -6l-81 -216q-4 -12 -3.5 -22.5t9.5 -21t30.5 -5t29.5 33.5l6 21zM162 916l-36 -11q-35 -14 -34 -48l5 -217l34 10q37 13 36 45zM250 929q-10 12 -34 8l-36 -12l5 -248l36 10q35 10 35 41l-1 80l82 -75
q11 -11 31 -6q36 11 36 43l-5 224l-36 -10q-36 -10 -36 -42l3 -86zM388 620q39 11 38 52.5t-40 33.5q-132 -36 -237 -82l1 -34q1 -43 41 -32l49 21l5 -274l49 18q49 20 49 58l-5 225zM539 716q-26 26 -55.5 18t-38.5 -27t-9 -32.5t10 -29.5l102 -107l1 -88l1 -46l49 18
q48 18 47 56l-1 87l93 166q13 33 -2 53.5t-44.5 14t-51.5 -49.5l-48 -88zM905 624q47 14 75.5 56t28.5 89t-28 71.5t-70 16.5q-80 -17 -160 -45l8 -343l49 14q49 17 48 58l-1 70zM879 779q42 10 42.5 -29t-41.5 -51l-27 -7l-2 78zM1193 585q38 11 37 50l-1 41l-108 -31
l-1 52l60 16q38 11 38 51l-1 41l-98 -27l-2 49l70 19q38 11 38 51l-1 40q-103 -23 -205 -55l6 -339z" />
    <glyph glyph-name="guillemotright" unicode="&#xbb;" horiz-adv-x="1224" 
d="M577 300l-301 -235q-79 -34 -138.5 -5.5t-67.5 98.5t103 151l206 165l-206 163q-111 81 -103 151t67 99t139 -6l301 -246q96 -85 96 -168t-96 -167zM1127 300l-301 -235q-79 -34 -138.5 -5.5t-67.5 98.5t103 151l206 165l-206 163q-111 81 -103 151t67 99t139 -6
l301 -246q96 -85 96 -168t-96 -167z" />
    <glyph glyph-name="onequarter" unicode="&#xbc;" 
d="M1287 187.5q-203 -193.5 -514 -193.5t-512 193.5t-201 506.5t200 507.5t515.5 194.5t515 -194.5t199.5 -507.5t-203 -506.5zM776 1292q-269 0 -439 -165.5t-170 -432t171 -431t435.5 -164.5t437.5 164.5t173 431.5l-608 1v596z" />
    <glyph glyph-name="onehalf" unicode="&#xbd;" 
d="M1287 187.5q-203 -193.5 -514 -193.5t-512 193.5t-201 506.5t200 507.5t515.5 194.5t515 -194.5t199.5 -507.5t-203 -506.5zM776 1292q-269 0 -439 -165.5t-170 -432t171 -431t437 -164.5z" />
    <glyph glyph-name="threequarters" unicode="&#xbe;" 
d="M1287 187.5q-203 -193.5 -514 -193.5t-512 193.5t-201 506.5t200 507.5t515.5 194.5t515 -194.5t199.5 -507.5t-203 -506.5zM776 1292q-269 0 -439 -165.5t-170 -431.5l609 1v596z" />
    <glyph glyph-name="questiondown" unicode="&#xbf;" horiz-adv-x="1026" 
d="M262 121q-132 120 -132 280.5t149.5 244.5t144.5 172q0 144 193 144t193 -144q0 -171 -152 -262q-44 -18 -102 -62.5t-43 -104t91.5 -59.5t182.5 55t127 55q142 0 142 -147t-141 -218t-333.5 -71t-319.5 117zM611.5 1045q89.5 0 144 59.5t54.5 150.5t-54.5 149.5
t-144 58.5t-143.5 -59.5t-54 -149.5t54 -149.5t143.5 -59.5z" />
    <glyph glyph-name="Agrave" unicode="&#xc0;" horiz-adv-x="1355" 
d="M792 564l-86 234l-86 -234h172zM502 244l-38 -102q-51 -136 -167.5 -136t-167 71.5t-50.5 128.5t25 112l412 902q62 136 189 136t189 -136l414 -902q26 -56 26 -113t-49 -128t-167.5 -71t-169.5 136l-38 102h-408zM791 1747q48 -79 87.5 -170.5t-27.5 -142.5t-156 -1
t-160 110t-64 141t65 128t132.5 30.5t122.5 -95.5z" />
    <glyph glyph-name="Agrave" unicode="&#xe0;" horiz-adv-x="1355" 
d="M792 564l-86 234l-86 -234h172zM502 244l-38 -102q-51 -136 -167.5 -136t-167 71.5t-50.5 128.5t25 112l412 902q62 136 189 136t189 -136l414 -902q26 -56 26 -113t-49 -128t-167.5 -71t-169.5 136l-38 102h-408zM791 1747q48 -79 87.5 -170.5t-27.5 -142.5t-156 -1
t-160 110t-64 141t65 128t132.5 30.5t122.5 -95.5z" />
    <glyph glyph-name="Aacute" unicode="&#xc1;" horiz-adv-x="1355" 
d="M792 564l-86 234l-86 -234h172zM502 244l-38 -102q-51 -136 -167.5 -136t-167 71.5t-50.5 128.5t25 112l412 902q62 136 189 136t189 -136l414 -902q26 -56 26 -113t-49 -128t-167.5 -71t-169.5 136l-38 102h-408zM610.5 1747q-47.5 -79 -87.5 -170.5t27.5 -142.5t156 -1
t159.5 110t64 141t-65 128t-132.5 30.5t-122 -95.5z" />
    <glyph glyph-name="Aacute" unicode="&#xe1;" horiz-adv-x="1355" 
d="M792 564l-86 234l-86 -234h172zM502 244l-38 -102q-51 -136 -167.5 -136t-167 71.5t-50.5 128.5t25 112l412 902q62 136 189 136t189 -136l414 -902q26 -56 26 -113t-49 -128t-167.5 -71t-169.5 136l-38 102h-408zM610.5 1747q-47.5 -79 -87.5 -170.5t27.5 -142.5t156 -1
t159.5 110t64 141t-65 128t-132.5 30.5t-122 -95.5z" />
    <glyph glyph-name="Acircumflex" unicode="&#xc2;" horiz-adv-x="1355" 
d="M787 564l-86 234l-86 -234h172zM497 244l-38 -102q-51 -136 -167.5 -136t-167 71.5t-50.5 128.5t25 112l412 902q62 136 189 136t189 -136l414 -902q26 -56 26 -113t-49 -128t-167.5 -71t-169.5 136l-38 102h-408zM875 1752l129 -210q21 -57 -9.5 -97t-101.5 -44t-112 61
l-80 129l-79 -129q-40 -65 -112 -61t-102.5 43.5t-9.5 97.5l130 209q58 95 172.5 95t174.5 -94z" />
    <glyph glyph-name="Acircumflex" unicode="&#xe2;" horiz-adv-x="1355" 
d="M787 564l-86 234l-86 -234h172zM497 244l-38 -102q-51 -136 -167.5 -136t-167 71.5t-50.5 128.5t25 112l412 902q62 136 189 136t189 -136l414 -902q26 -56 26 -113t-49 -128t-167.5 -71t-169.5 136l-38 102h-408zM875 1752l129 -210q21 -57 -9.5 -97t-101.5 -44t-112 61
l-80 129l-79 -129q-40 -65 -112 -61t-102.5 43.5t-9.5 97.5l130 209q58 95 172.5 95t174.5 -94z" />
    <glyph glyph-name="Atilde" unicode="&#xc3;" horiz-adv-x="1355" 
d="M787 564l-86 234l-86 -234h172zM497 244l-38 -102q-51 -136 -167.5 -136t-167 71.5t-50.5 128.5t25 112l412 902q62 136 189 136t189 -136l414 -902q26 -56 26 -113t-49 -128t-167.5 -71t-169.5 136l-38 102h-408zM431 1523q-110 -50 -120 94t158.5 204t250.5 -20t249 20
q110 50 120 -94t-158.5 -204t-250.5 20t-249 -20z" />
    <glyph glyph-name="Atilde" unicode="&#xe3;" horiz-adv-x="1355" 
d="M787 564l-86 234l-86 -234h172zM497 244l-38 -102q-51 -136 -167.5 -136t-167 71.5t-50.5 128.5t25 112l412 902q62 136 189 136t189 -136l414 -902q26 -56 26 -113t-49 -128t-167.5 -71t-169.5 136l-38 102h-408zM431 1523q-110 -50 -120 94t158.5 204t250.5 -20t249 20
q110 50 120 -94t-158.5 -204t-250.5 20t-249 -20z" />
    <glyph glyph-name="Adieresis" unicode="&#xc4;" horiz-adv-x="1355" 
d="M792 564l-86 234l-86 -234h172zM502 244l-38 -102q-51 -136 -167.5 -136t-167 71.5t-50.5 128.5t25 112l412 902q62 136 189 136t189 -136l414 -902q26 -56 26 -113t-49 -128t-167.5 -71t-169.5 136l-38 102h-408zM455.5 1846q-89.5 0 -144 -59.5t-54.5 -150.5
t54.5 -149.5t144 -58.5t143.5 59.5t54 149.5t-54 149.5t-143.5 59.5zM955.5 1846q-89.5 0 -144 -59.5t-54.5 -150.5t54.5 -149.5t144 -58.5t143.5 59.5t54 149.5t-54 149.5t-143.5 59.5z" />
    <glyph glyph-name="Adieresis" unicode="&#xe4;" horiz-adv-x="1355" 
d="M792 564l-86 234l-86 -234h172zM502 244l-38 -102q-51 -136 -167.5 -136t-167 71.5t-50.5 128.5t25 112l412 902q62 136 189 136t189 -136l414 -902q26 -56 26 -113t-49 -128t-167.5 -71t-169.5 136l-38 102h-408zM455.5 1846q-89.5 0 -144 -59.5t-54.5 -150.5
t54.5 -149.5t144 -58.5t143.5 59.5t54 149.5t-54 149.5t-143.5 59.5zM955.5 1846q-89.5 0 -144 -59.5t-54.5 -150.5t54.5 -149.5t144 -58.5t143.5 59.5t54 149.5t-54 149.5t-143.5 59.5z" />
    <glyph glyph-name="Aring" unicode="&#xc5;" horiz-adv-x="1355" 
d="M786 564l-86 234l-86 -234h172zM496 244l-38 -102q-51 -136 -167.5 -136t-167 71.5t-50.5 128.5t25 112l412 902q62 136 189 136t189 -136l414 -902q26 -56 26 -113t-49 -128t-167.5 -71t-169.5 136l-38 102h-408zM790 1637.5q0 -40.5 -25 -67.5t-65 -27t-65 26.5
t-25 67.5t25 68t65 27t65 -27t25 -67.5zM700.5 1847q-89.5 0 -144 -59.5t-54.5 -150.5t54.5 -149.5t144 -58.5t143.5 59.5t54 149.5t-54 149.5t-143.5 59.5z" />
    <glyph glyph-name="Aring" unicode="&#xe5;" horiz-adv-x="1355" 
d="M786 564l-86 234l-86 -234h172zM496 244l-38 -102q-51 -136 -167.5 -136t-167 71.5t-50.5 128.5t25 112l412 902q62 136 189 136t189 -136l414 -902q26 -56 26 -113t-49 -128t-167.5 -71t-169.5 136l-38 102h-408zM790 1637.5q0 -40.5 -25 -67.5t-65 -27t-65 26.5
t-25 67.5t25 68t65 27t65 -27t25 -67.5zM700.5 1847q-89.5 0 -144 -59.5t-54.5 -150.5t54.5 -149.5t144 -58.5t143.5 59.5t54 149.5t-54 149.5t-143.5 59.5z" />
    <glyph glyph-name="AE" unicode="&#xc6;" horiz-adv-x="1559" 
d="M728 6q154 0 154 159t-154 159h-282v200h242q154 0 154 160t-154 160h-242v194h282q154 0 154 159t-154 159h-480q-198 0 -198 -174v-1002q0 -174 198 -174h480zM-36 563l86 234v-234h-86zM238 243v1113h-189q-127 0 -189 -137l-412 -902q-25 -55 -25 -112t50.5 -128.5
t167 -71.5t167.5 136l38 102h392z" />
    <glyph glyph-name="AE" unicode="&#xe6;" horiz-adv-x="1559" 
d="M728 6q154 0 154 159t-154 159h-282v200h242q154 0 154 160t-154 160h-242v194h282q154 0 154 159t-154 159h-480q-198 0 -198 -174v-1002q0 -174 198 -174h480zM-36 563l86 234v-234h-86zM238 243v1113h-189q-127 0 -189 -137l-412 -902q-25 -55 -25 -112t50.5 -128.5
t167 -71.5t167.5 136l38 102h392z" />
    <glyph glyph-name="Ccedilla" unicode="&#xc7;" horiz-adv-x="1339" 
d="M1189 85q-115 -91 -426 -91t-512 193.5t-201 506.5t200 507.5t515.5 194.5t427 -91t111.5 -163.5t-48 -129t-105.5 -56.5t-182 44t-186.5 44q-336 0 -336 -349t336 -349q62 0 186.5 44t182 44t105.5 -56.5t48 -129t-115 -163.5zM697.5 -213q-32.5 7 -96 9t-54.5 79
l34 176l206 -1l-25 -112q161 0 144 -170q-17 -103 -78.5 -146.5t-153.5 -43.5t-142 21t-50 66.5t21 74.5t41.5 29t53 -12.5t75.5 -12.5t50 18t-25.5 25z" />
    <glyph glyph-name="Ccedilla" unicode="&#xe7;" horiz-adv-x="1339" 
d="M1189 85q-115 -91 -426 -91t-512 193.5t-201 506.5t200 507.5t515.5 194.5t427 -91t111.5 -163.5t-48 -129t-105.5 -56.5t-182 44t-186.5 44q-336 0 -336 -349t336 -349q62 0 186.5 44t182 44t105.5 -56.5t48 -129t-115 -163.5zM697.5 -213q-32.5 7 -96 9t-54.5 79
l34 176l206 -1l-25 -112q161 0 144 -170q-17 -103 -78.5 -146.5t-153.5 -43.5t-142 21t-50 66.5t21 74.5t41.5 29t53 -12.5t75.5 -12.5t50 18t-25.5 25z" />
    <glyph glyph-name="Egrave" unicode="&#xc8;" horiz-adv-x="932" 
d="M728 6q154 0 154 159t-154 159h-282v200h242q154 0 154 160t-154 160h-242v194h282q154 0 154 159t-154 159h-480q-198 0 -198 -174v-1002q0 -174 198 -174h480zM521 1747q48 -79 87.5 -170.5t-27.5 -142.5t-156 -1t-160 110t-64 141t65 128t132.5 30.5t122.5 -95.5z" />
    <glyph glyph-name="Egrave" unicode="&#xe8;" horiz-adv-x="932" 
d="M728 6q154 0 154 159t-154 159h-282v200h242q154 0 154 160t-154 160h-242v194h282q154 0 154 159t-154 159h-480q-198 0 -198 -174v-1002q0 -174 198 -174h480zM521 1747q48 -79 87.5 -170.5t-27.5 -142.5t-156 -1t-160 110t-64 141t65 128t132.5 30.5t122.5 -95.5z" />
    <glyph glyph-name="Eacute" unicode="&#xc9;" horiz-adv-x="932" 
d="M728 6q154 0 154 159t-154 159h-282v200h242q154 0 154 160t-154 160h-242v194h282q154 0 154 159t-154 159h-480q-198 0 -198 -174v-1002q0 -174 198 -174h480zM356.5 1747q-47.5 -79 -87.5 -170.5t27.5 -142.5t156 -1t159.5 110t64 141t-65 128t-132.5 30.5t-122 -95.5
z" />
    <glyph glyph-name="Eacute" unicode="&#xe9;" horiz-adv-x="932" 
d="M728 6q154 0 154 159t-154 159h-282v200h242q154 0 154 160t-154 160h-242v194h282q154 0 154 159t-154 159h-480q-198 0 -198 -174v-1002q0 -174 198 -174h480zM356.5 1747q-47.5 -79 -87.5 -170.5t27.5 -142.5t156 -1t159.5 110t64 141t-65 128t-132.5 30.5t-122 -95.5
z" />
    <glyph glyph-name="Ecircumflex" unicode="&#xca;" horiz-adv-x="932" 
d="M765 6q154 0 154 159t-154 159h-282v200h242q154 0 154 160t-154 160h-242v194h282q154 0 154 159t-154 159h-480q-198 0 -198 -174v-1002q0 -174 198 -174h480zM675 1752l129 -210q21 -57 -9.5 -97t-101.5 -44t-112 61l-80 129l-79 -129q-40 -65 -112 -61t-102.5 43.5
t-9.5 97.5l130 209q58 95 172.5 95t174.5 -94z" />
    <glyph glyph-name="Ecircumflex" unicode="&#xea;" horiz-adv-x="932" 
d="M765 6q154 0 154 159t-154 159h-282v200h242q154 0 154 160t-154 160h-242v194h282q154 0 154 159t-154 159h-480q-198 0 -198 -174v-1002q0 -174 198 -174h480zM675 1752l129 -210q21 -57 -9.5 -97t-101.5 -44t-112 61l-80 129l-79 -129q-40 -65 -112 -61t-102.5 43.5
t-9.5 97.5l130 209q58 95 172.5 95t174.5 -94z" />
    <glyph glyph-name="Edieresis" unicode="&#xcb;" horiz-adv-x="996" 
d="M728 6q154 0 154 159t-154 159h-282v200h242q154 0 154 160t-154 160h-242v194h282q154 0 154 159t-154 159h-480q-198 0 -198 -174v-1002q0 -174 198 -174h480zM217.5 1846q-89.5 0 -144 -59.5t-54.5 -150.5t54.5 -149.5t144 -58.5t143.5 59.5t54 149.5t-54 149.5
t-143.5 59.5zM717.5 1846q-89.5 0 -144 -59.5t-54.5 -150.5t54.5 -149.5t144 -58.5t143.5 59.5t54 149.5t-54 149.5t-143.5 59.5z" />
    <glyph glyph-name="Edieresis" unicode="&#xeb;" horiz-adv-x="996" 
d="M728 6q154 0 154 159t-154 159h-282v200h242q154 0 154 160t-154 160h-242v194h282q154 0 154 159t-154 159h-480q-198 0 -198 -174v-1002q0 -174 198 -174h480zM217.5 1846q-89.5 0 -144 -59.5t-54.5 -150.5t54.5 -149.5t144 -58.5t143.5 59.5t54 149.5t-54 149.5
t-143.5 59.5zM717.5 1846q-89.5 0 -144 -59.5t-54.5 -150.5t54.5 -149.5t144 -58.5t143.5 59.5t54 149.5t-54 149.5t-143.5 59.5z" />
    <glyph glyph-name="Igrave" unicode="&#xcc;" horiz-adv-x="522" 
d="M446 180q0 -174 -198 -174t-198 174v1002q0 174 198 174t198 -174v-1002zM351 1747q48 -79 87.5 -170.5t-27.5 -142.5t-156 -1t-160 110t-64 141t65 128t132.5 30.5t122.5 -95.5z" />
    <glyph glyph-name="Igrave" unicode="&#xec;" horiz-adv-x="522" 
d="M446 180q0 -174 -198 -174t-198 174v1002q0 174 198 174t198 -174v-1002zM351 1747q48 -79 87.5 -170.5t-27.5 -142.5t-156 -1t-160 110t-64 141t65 128t132.5 30.5t122.5 -95.5z" />
    <glyph glyph-name="Iacute" unicode="&#xcd;" horiz-adv-x="522" 
d="M446 180q0 -174 -198 -174t-198 174v1002q0 174 198 174t198 -174v-1002zM145.5 1747q-47.5 -79 -87.5 -170.5t27.5 -142.5t156 -1t159.5 110t64 141t-65 128t-132.5 30.5t-122 -95.5z" />
    <glyph glyph-name="Iacute" unicode="&#xed;" horiz-adv-x="522" 
d="M446 180q0 -174 -198 -174t-198 174v1002q0 174 198 174t198 -174v-1002zM145.5 1747q-47.5 -79 -87.5 -170.5t27.5 -142.5t156 -1t159.5 110t64 141t-65 128t-132.5 30.5t-122 -95.5z" />
    <glyph glyph-name="Icircumflex" unicode="&#xce;" horiz-adv-x="722" 
d="M398 180q0 -174 -198 -174t-198 174v1002q0 174 198 174t198 -174v-1002zM374 1752l129 -210q21 -57 -9.5 -97t-101.5 -44t-112 61l-80 129l-79 -129q-40 -65 -112 -61t-102.5 43.5t-9.5 97.5l130 209q58 95 172.5 95t174.5 -94z" />
    <glyph glyph-name="Icircumflex" unicode="&#xee;" horiz-adv-x="722" 
d="M398 180q0 -174 -198 -174t-198 174v1002q0 174 198 174t198 -174v-1002zM374 1752l129 -210q21 -57 -9.5 -97t-101.5 -44t-112 61l-80 129l-79 -129q-40 -65 -112 -61t-102.5 43.5t-9.5 97.5l130 209q58 95 172.5 95t174.5 -94z" />
    <glyph glyph-name="Idieresis" unicode="&#xcf;" horiz-adv-x="996" 
d="M446 180q0 -174 -198 -174t-198 174v1002q0 174 198 174t198 -174v-1002zM-1.5 1845q-89.5 0 -144 -59.5t-54.5 -150.5t54.5 -149.5t144 -58.5t143.5 59.5t54 149.5t-54 149.5t-143.5 59.5zM498.5 1845q-89.5 0 -144 -59.5t-54.5 -150.5t54.5 -149.5t144 -58.5
t143.5 59.5t54 149.5t-54 149.5t-143.5 59.5z" />
    <glyph glyph-name="Idieresis" unicode="&#xef;" horiz-adv-x="996" 
d="M446 180q0 -174 -198 -174t-198 174v1002q0 174 198 174t198 -174v-1002zM-1.5 1845q-89.5 0 -144 -59.5t-54.5 -150.5t54.5 -149.5t144 -58.5t143.5 59.5t54 149.5t-54 149.5t-143.5 59.5zM498.5 1845q-89.5 0 -144 -59.5t-54.5 -150.5t54.5 -149.5t144 -58.5
t143.5 59.5t54 149.5t-54 149.5t-143.5 59.5z" />
    <glyph glyph-name="Eth" unicode="&#xd0;" horiz-adv-x="1412" 
d="M650 6h-402q-198 0 -198 174v1002q0 174 198 174h402q331 -38 456 -366q62 -153 62 -309.5t-62 -308.5q-125 -328 -456 -366zM518 1084h-72v-800l72 -2q284 30 283 411t-283 391zM16 515q-160 0 -160 159t160 159h463q160 0 160 -159t-160 -159h-463z" />
    <glyph glyph-name="Eth" unicode="&#xf0;" horiz-adv-x="1412" 
d="M650 6h-402q-198 0 -198 174v1002q0 174 198 174h402q331 -38 456 -366q62 -153 62 -309.5t-62 -308.5q-125 -328 -456 -366zM518 1084h-72v-800l72 -2q284 30 283 411t-283 391zM16 515q-160 0 -160 159t160 159h463q160 0 160 -159t-160 -159h-463z" />
    <glyph glyph-name="Ntilde" unicode="&#xd1;" horiz-adv-x="1312" 
d="M861 754v428q0 174 198 174t198 -174v-1002q0 -174 -198 -174q-110 0 -174 76l-444 528v-430q0 -174 -198 -174t-198 174v1002q0 173 198 174q127 1 182 -82zM382 1523q-110 -50 -120 94t158.5 204t250.5 -20t249 20q110 50 120 -94t-158.5 -204t-250.5 20t-249 -20z" />
    <glyph glyph-name="Ntilde" unicode="&#xf1;" horiz-adv-x="1312" 
d="M861 754v428q0 174 198 174t198 -174v-1002q0 -174 -198 -174q-110 0 -174 76l-444 528v-430q0 -174 -198 -174t-198 174v1002q0 173 198 174q127 1 182 -82zM382 1523q-110 -50 -120 94t158.5 204t250.5 -20t249 20q110 50 120 -94t-158.5 -204t-250.5 20t-249 -20z" />
    <glyph glyph-name="Ograve" unicode="&#xd2;" 
d="M1277 187.5q-203 -193.5 -514 -193.5t-512 193.5t-201 506.5t200 507.5t515.5 194.5t515 -194.5t199.5 -507.5t-203 -506.5zM766 1044q-150 0 -241 -99.5t-91 -251t91 -249.5t240.5 -98t240 99t90.5 250t-90 250t-240 99zM841 1747q48 -79 87.5 -170.5t-27.5 -142.5
t-156 -1t-160 110t-64 141t65 128t132.5 30.5t122.5 -95.5z" />
    <glyph glyph-name="Ograve" unicode="&#xf2;" 
d="M1277 187.5q-203 -193.5 -514 -193.5t-512 193.5t-201 506.5t200 507.5t515.5 194.5t515 -194.5t199.5 -507.5t-203 -506.5zM766 1044q-150 0 -241 -99.5t-91 -251t91 -249.5t240.5 -98t240 99t90.5 250t-90 250t-240 99zM841 1747q48 -79 87.5 -170.5t-27.5 -142.5
t-156 -1t-160 110t-64 141t65 128t132.5 30.5t122.5 -95.5z" />
    <glyph glyph-name="Oacute" unicode="&#xd3;" 
d="M1277 187.5q-203 -193.5 -514 -193.5t-512 193.5t-201 506.5t200 507.5t515.5 194.5t515 -194.5t199.5 -507.5t-203 -506.5zM766 1044q-150 0 -241 -99.5t-91 -251t91 -249.5t240.5 -98t240 99t90.5 250t-90 250t-240 99zM703.5 1747q-47.5 -79 -87.5 -170.5t27.5 -142.5
t156 -1t159.5 110t64 141t-65 128t-132.5 30.5t-122 -95.5z" />
    <glyph glyph-name="Oacute" unicode="&#xf3;" 
d="M1277 187.5q-203 -193.5 -514 -193.5t-512 193.5t-201 506.5t200 507.5t515.5 194.5t515 -194.5t199.5 -507.5t-203 -506.5zM766 1044q-150 0 -241 -99.5t-91 -251t91 -249.5t240.5 -98t240 99t90.5 250t-90 250t-240 99zM703.5 1747q-47.5 -79 -87.5 -170.5t27.5 -142.5
t156 -1t159.5 110t64 141t-65 128t-132.5 30.5t-122 -95.5z" />
    <glyph glyph-name="Ocircumflex" unicode="&#xd4;" 
d="M1312 187.5q-203 -193.5 -514 -193.5t-512 193.5t-201 506.5t200 507.5t515.5 194.5t515 -194.5t199.5 -507.5t-203 -506.5zM801 1044q-150 0 -241 -99.5t-91 -251t91 -249.5t240.5 -98t240 99t90.5 250t-90 250t-240 99zM974 1752l129 -210q21 -57 -9.5 -97t-101.5 -44
t-112 61l-80 129l-79 -129q-40 -65 -112 -61t-102.5 43.5t-9.5 97.5l130 209q58 95 172.5 95t174.5 -94z" />
    <glyph glyph-name="Ocircumflex" unicode="&#xf4;" 
d="M1312 187.5q-203 -193.5 -514 -193.5t-512 193.5t-201 506.5t200 507.5t515.5 194.5t515 -194.5t199.5 -507.5t-203 -506.5zM801 1044q-150 0 -241 -99.5t-91 -251t91 -249.5t240.5 -98t240 99t90.5 250t-90 250t-240 99zM974 1752l129 -210q21 -57 -9.5 -97t-101.5 -44
t-112 61l-80 129l-79 -129q-40 -65 -112 -61t-102.5 43.5t-9.5 97.5l130 209q58 95 172.5 95t174.5 -94z" />
    <glyph glyph-name="Otilde" unicode="&#xd5;" 
d="M1312 185.5q-203 -193.5 -514 -193.5t-512 193.5t-201 506.5t200 507.5t515.5 194.5t515 -194.5t199.5 -507.5t-203 -506.5zM801 1042q-150 0 -241 -99.5t-91 -251t91 -249.5t240.5 -98t240 99t90.5 250t-90 250t-240 99zM531 1523q-110 -50 -120 94t158.5 204t250.5 -20
t249 20q110 50 120 -94t-158.5 -204t-250.5 20t-249 -20z" />
    <glyph glyph-name="Otilde" unicode="&#xf5;" 
d="M1312 185.5q-203 -193.5 -514 -193.5t-512 193.5t-201 506.5t200 507.5t515.5 194.5t515 -194.5t199.5 -507.5t-203 -506.5zM801 1042q-150 0 -241 -99.5t-91 -251t91 -249.5t240.5 -98t240 99t90.5 250t-90 250t-240 99zM531 1523q-110 -50 -120 94t158.5 204t250.5 -20
t249 20q110 50 120 -94t-158.5 -204t-250.5 20t-249 -20z" />
    <glyph glyph-name="Odieresis" unicode="&#xd6;" 
d="M1260 187.5q-203 -193.5 -514 -193.5t-512 193.5t-201 506.5t200 507.5t515.5 194.5t515 -194.5t199.5 -507.5t-203 -506.5zM749 1044q-150 0 -241 -99.5t-91 -251t91 -249.5t240.5 -98t240 99t90.5 250t-90 250t-240 99zM498.5 1846q-89.5 0 -144 -59.5t-54.5 -150.5
t54.5 -149.5t144 -58.5t143.5 59.5t54 149.5t-54 149.5t-143.5 59.5zM998.5 1846q-89.5 0 -144 -59.5t-54.5 -150.5t54.5 -149.5t144 -58.5t143.5 59.5t54 149.5t-54 149.5t-143.5 59.5z" />
    <glyph glyph-name="Odieresis" unicode="&#xf6;" 
d="M1260 187.5q-203 -193.5 -514 -193.5t-512 193.5t-201 506.5t200 507.5t515.5 194.5t515 -194.5t199.5 -507.5t-203 -506.5zM749 1044q-150 0 -241 -99.5t-91 -251t91 -249.5t240.5 -98t240 99t90.5 250t-90 250t-240 99zM498.5 1846q-89.5 0 -144 -59.5t-54.5 -150.5
t54.5 -149.5t144 -58.5t143.5 59.5t54 149.5t-54 149.5t-143.5 59.5zM998.5 1846q-89.5 0 -144 -59.5t-54.5 -150.5t54.5 -149.5t144 -58.5t143.5 59.5t54 149.5t-54 149.5t-143.5 59.5z" />
    <glyph glyph-name="multiply" unicode="&#xd7;" horiz-adv-x="832" 
d="M400 350q-113 -113 -225.5 -0.5t0.5 225.5l99 99l-99 99q-113 113 -0.5 225.5t225.5 -0.5l99 -99l99 99q113 113 225.5 0.5t-0.5 -225.5l-99 -99l99 -99q113 -113 0.5 -225.5t-225.5 0.5l-99 99z" />
    <glyph glyph-name="Oslash" unicode="&#xd8;" 
d="M1312 183.5q-203 -193.5 -514 -193.5t-512 193.5t-201 506.5t200 507.5t515.5 194.5t515 -194.5t199.5 -507.5t-203 -506.5zM801 1044q-150 0 -241 -99.5t-91 -251t91 -249.5t240.5 -98t240 99t90.5 250t-90 250t-240 99zM483 -91q-84 -147 -233 -76.5t-75 217.5
l944 1424q84 147 233 76.5t74 -217.5z" />
    <glyph glyph-name="Oslash" unicode="&#xf8;" 
d="M1312 183.5q-203 -193.5 -514 -193.5t-512 193.5t-201 506.5t200 507.5t515.5 194.5t515 -194.5t199.5 -507.5t-203 -506.5zM801 1044q-150 0 -241 -99.5t-91 -251t91 -249.5t240.5 -98t240 99t90.5 250t-90 250t-240 99zM483 -91q-84 -147 -233 -76.5t-75 217.5
l944 1424q84 147 233 76.5t74 -217.5z" />
    <glyph glyph-name="Ugrave" unicode="&#xd9;" horiz-adv-x="1164" 
d="M1114 372q0 -191 -162.5 -283.5t-369.5 -92.5t-369.5 92.5t-162.5 283.5v810q0 174 198 174t198 -174v-752q0 -114 136 -114t136 114v752q0 174 198 174t198 -174v-810zM666 1747q48 -79 87.5 -170.5t-27.5 -142.5t-156 -1t-160 110t-64 141t65 128t132.5 30.5
t122.5 -95.5z" />
    <glyph glyph-name="Ugrave" unicode="&#xf9;" horiz-adv-x="1164" 
d="M1114 372q0 -191 -162.5 -283.5t-369.5 -92.5t-369.5 92.5t-162.5 283.5v810q0 174 198 174t198 -174v-752q0 -114 136 -114t136 114v752q0 174 198 174t198 -174v-810zM666 1747q48 -79 87.5 -170.5t-27.5 -142.5t-156 -1t-160 110t-64 141t65 128t132.5 30.5
t122.5 -95.5z" />
    <glyph glyph-name="Uacute" unicode="&#xda;" horiz-adv-x="1164" 
d="M1114 372q0 -191 -162.5 -283.5t-369.5 -92.5t-369.5 92.5t-162.5 283.5v810q0 174 198 174t198 -174v-752q0 -114 136 -114t136 114v752q0 174 198 174t198 -174v-810zM499.5 1747q-47.5 -79 -87.5 -170.5t27.5 -142.5t156 -1t159.5 110t64 141t-65 128t-132.5 30.5
t-122 -95.5z" />
    <glyph glyph-name="Uacute" unicode="&#xfa;" horiz-adv-x="1164" 
d="M1114 372q0 -191 -162.5 -283.5t-369.5 -92.5t-369.5 92.5t-162.5 283.5v810q0 174 198 174t198 -174v-752q0 -114 136 -114t136 114v752q0 174 198 174t198 -174v-810zM499.5 1747q-47.5 -79 -87.5 -170.5t27.5 -142.5t156 -1t159.5 110t64 141t-65 128t-132.5 30.5
t-122 -95.5z" />
    <glyph glyph-name="Ucircumflex" unicode="&#xdb;" horiz-adv-x="1164" 
d="M1114 372q0 -191 -162.5 -283.5t-369.5 -92.5t-369.5 92.5t-162.5 283.5v810q0 174 198 174t198 -174v-752q0 -114 136 -114t136 114v752q0 174 198 174t198 -174v-810zM756 1752l129 -210q21 -57 -9.5 -97t-101.5 -44t-112 61l-80 129l-79 -129q-40 -65 -112 -61
t-102.5 43.5t-9.5 97.5l130 209q58 95 172.5 95t174.5 -94z" />
    <glyph glyph-name="Ucircumflex" unicode="&#xfb;" horiz-adv-x="1164" 
d="M1114 372q0 -191 -162.5 -283.5t-369.5 -92.5t-369.5 92.5t-162.5 283.5v810q0 174 198 174t198 -174v-752q0 -114 136 -114t136 114v752q0 174 198 174t198 -174v-810zM756 1752l129 -210q21 -57 -9.5 -97t-101.5 -44t-112 61l-80 129l-79 -129q-40 -65 -112 -61
t-102.5 43.5t-9.5 97.5l130 209q58 95 172.5 95t174.5 -94z" />
    <glyph glyph-name="Udieresis" unicode="&#xdc;" horiz-adv-x="1164" 
d="M1114 372q0 -191 -162.5 -283.5t-369.5 -92.5t-369.5 92.5t-162.5 283.5v810q0 174 198 174t198 -174v-752q0 -114 136 -114t136 114v752q0 174 198 174t198 -174v-810zM332.5 1846q-89.5 0 -144 -59.5t-54.5 -150.5t54.5 -149.5t144 -58.5t143.5 59.5t54 149.5
t-54 149.5t-143.5 59.5zM832.5 1846q-89.5 0 -144 -59.5t-54.5 -150.5t54.5 -149.5t144 -58.5t143.5 59.5t54 149.5t-54 149.5t-143.5 59.5z" />
    <glyph glyph-name="Udieresis" unicode="&#xfc;" horiz-adv-x="1164" 
d="M1114 372q0 -191 -162.5 -283.5t-369.5 -92.5t-369.5 92.5t-162.5 283.5v810q0 174 198 174t198 -174v-752q0 -114 136 -114t136 114v752q0 174 198 174t198 -174v-810zM332.5 1846q-89.5 0 -144 -59.5t-54.5 -150.5t54.5 -149.5t144 -58.5t143.5 59.5t54 149.5
t-54 149.5t-143.5 59.5zM832.5 1846q-89.5 0 -144 -59.5t-54.5 -150.5t54.5 -149.5t144 -58.5t143.5 59.5t54 149.5t-54 149.5t-143.5 59.5z" />
    <glyph glyph-name="Yacute" unicode="&#xdd;" horiz-adv-x="1346" 
d="M700 926l222 292q97 128 216 128t159.5 -64.5t40.5 -116t-36 -123.5l-408 -532v-330q0 -174 -198 -174t-198 174v330l-400 532q-36 72 -36 123.5t40.5 116t159.5 64.5t216 -128zM613.5 1747q-47.5 -79 -87.5 -170.5t27.5 -142.5t156 -1t159.5 110t64 141t-65 128
t-132.5 30.5t-122 -95.5z" />
    <glyph glyph-name="Yacute" unicode="&#xfd;" horiz-adv-x="1346" 
d="M700 926l222 292q97 128 216 128t159.5 -64.5t40.5 -116t-36 -123.5l-408 -532v-330q0 -174 -198 -174t-198 174v330l-400 532q-36 72 -36 123.5t40.5 116t159.5 64.5t216 -128zM613.5 1747q-47.5 -79 -87.5 -170.5t27.5 -142.5t156 -1t159.5 110t64 141t-65 128
t-132.5 30.5t-122 -95.5z" />
    <glyph glyph-name="Thorn" unicode="&#xde;" horiz-adv-x="942" 
d="M446 170q0 -174 -198 -174t-198 174v1002q0 174 198 174t198 -174v-1002zM580 302h-244q-110 0 -110 97v557q0 97 110 97h244q204 -21 293 -204q35 -85 35 -172t-35 -172q-89 -182 -293 -203zM518 851h-72v-352h72q144 13 143.5 180.5t-143.5 171.5z" />
    <glyph glyph-name="Thorn" unicode="&#xfe;" horiz-adv-x="942" 
d="M446 170q0 -174 -198 -174t-198 174v1002q0 174 198 174t198 -174v-1002zM580 302h-244q-110 0 -110 97v557q0 97 110 97h244q204 -21 293 -204q35 -85 35 -172t-35 -172q-89 -182 -293 -203zM518 851h-72v-352h72q144 13 143.5 180.5t-143.5 171.5z" />
    <glyph glyph-name="germandbls" unicode="&#xdf;" horiz-adv-x="1604" 
d="M938 1429q206 -88 329.5 -274t123.5 -409q0 -152 -59 -290q-85 -206 -272 -329t-412 -123q-149 0 -288 58q-206 84 -329.5 271.5t-123.5 412.5q0 153 58 288q88 206 274 329.5t409 123.5q154 0 290 -58zM983 1243q10 2 13 10q2 8 -3 15q-52 90 -239 111q-34 2 -68 2
q-141 0 -261 -62q-173 -93 -199 -247q-2 -12 0 -20q5 -8 19 -3q357 124 738 194zM866 1419q-103 32 -211 32q-223 0 -399.5 -119t-260.5 -323q-52 -131 -52 -259q0 -213 115 -393t309 -263q129 -56 279 -56q364 0 578 295q48 65 76 135l-118 66q-164 -369 -527 -374
q-293 -10 -465.5 176t-172.5 439q0 206 110 370.5t298 240.5q131 53 274 53q78 0 167 -20zM1099 585q-362 -99 -715 -227l-9 -5q-5 -3 -5 -8q-10 -22 57 -53q51 -22 91 -33q123 -27 252 3q240 59 331 249q18 36 20 50q4 13 -3 19.5t-19 4.5zM295 1103q-11 0 -11 14
q0 15 16 46q55 108 163 156q-118 -74 -153 -204q-3 -12 -15 -12zM875 1257l-30 -9l-38 -8q40 13 38 43q0 10 -12 22q-46 48 -166 58q55 4 132 -15q99 -24 96 -67q0 -13 -20 -24zM842 310q129 73 176 201q8 23 26 18q7 -2 9 -11q5 -7 0 -17q-62 -134 -211 -191zM1144 1246
l-35 -7q-37 -11 -36 -43l4 -203l37 10q35 10 34 42zM905 1167q-10 12 -33 6l-36 -6l5 -239l36 7q35 9 35 41l-2 68l82 -64q12 -10 32 -5q36 10 34 42l-3 206l-36 -10q-36 -10 -36 -43l2 -66zM577 863q24 30 23 69t-28 54q-6 3 -30 4.5t-37 5.5t-13 15q-2 24 70 18
q27 -1 36 59q-54 11 -89.5 0.5t-56.5 -39.5q-23 -30 -23 -68t28 -49q6 -5 29.5 -6t37 -4t13.5 -14q1 -11 -24 -20.5t-82 1.5q-12 -16 -11.5 -43t33 -29.5t67.5 7.5t57 39zM700 989l15 47l17 -39zM754 943l7 -17q10 -23 31.5 -17t30 21.5t8.5 26.5t-5 19l-78 146
q-12 22 -36 16l-23 -6l-81 -216q-4 -12 -3.5 -22.5t9.5 -21t30.5 -5t29.5 33.5l6 21zM165 976l-36 -11q-35 -14 -34 -48l5 -217l34 10q37 13 36 45zM253 989q-10 12 -34 8l-36 -12l5 -248l36 10q35 10 35 41l-1 80l82 -75q11 -11 31 -6q36 11 36 43l-5 224l-36 -10
q-36 -10 -36 -42l3 -86zM388 680q39 11 38 52.5t-40 33.5q-132 -36 -237 -82l1 -34q1 -43 41 -32l49 21l5 -274l49 18q49 20 49 58l-5 225zM539 776q-26 26 -55.5 18t-38.5 -27t-9 -32.5t10 -29.5l102 -107l1 -88l1 -46l49 18q48 18 47 56l-1 87l93 166q13 33 -2 53.5
t-44.5 14t-51.5 -49.5l-48 -88zM905 684q47 14 75.5 56t28.5 89t-28 71.5t-70 16.5q-80 -17 -160 -45l8 -343l49 14q49 17 48 58l-1 70zM879 839q42 10 42.5 -29t-41.5 -51l-27 -7l-2 78zM1193 645q38 11 37 50l-1 41l-108 -31l-1 52l60 16q38 11 38 51l-1 41l-98 -27l-2 49
l70 19q38 11 38 51l-1 40q-103 -23 -205 -55l6 -339z" />
    <glyph glyph-name="divide" unicode="&#xf7;" horiz-adv-x="1078" 
d="M148 565q-140 0 -140 109t140 109h698q140 0 140 -109t-140 -109h-698zM550 1005.5q0 -31.5 -20.5 -53t-54 -21.5t-54 21t-20.5 53t20.5 53.5t54 21.5t54 -21.5t20.5 -53zM477.5 1182q-79.5 0 -127.5 -50t-48 -126t48 -125t127.5 -49t127 50t47.5 125t-47.5 125t-127 50z
M550 339.5q0 -31.5 -20.5 -53t-54 -21.5t-54 21t-20.5 53t20.5 53.5t54 21.5t54 -21.5t20.5 -53zM477.5 516q-79.5 0 -127.5 -50t-48 -126t48 -125t127.5 -49t127 50t47.5 125t-47.5 125t-127 50z" />
    <glyph glyph-name="OE" unicode="&#x152;" horiz-adv-x="1967" 
d="M1210.5 193q-195.5 -186 -494.5 -186t-492.5 186t-193.5 487.5t192.5 488.5t496 187t495.5 -187t192 -488.5t-195.5 -487.5zM719 1017q-144 0 -232 -95.5t-88 -241.5t88 -240t231.5 -94t230.5 95t87 240.5t-86.5 240.5t-230.5 95zM1278 6q-198 0 -198 174v1002
q0 174 198 174h480q154 0 154 -159t-154 -159h-282v-194h242q154 0 154 -160t-154 -160h-242v-200h282q154 0 154 -159t-154 -159h-480z" />
    <glyph glyph-name="OE" unicode="&#x153;" horiz-adv-x="1967" 
d="M1210.5 193q-195.5 -186 -494.5 -186t-492.5 186t-193.5 487.5t192.5 488.5t496 187t495.5 -187t192 -488.5t-195.5 -487.5zM719 1017q-144 0 -232 -95.5t-88 -241.5t88 -240t231.5 -94t230.5 95t87 240.5t-86.5 240.5t-230.5 95zM1278 6q-198 0 -198 174v1002
q0 174 198 174h480q154 0 154 -159t-154 -159h-282v-194h242q154 0 154 -160t-154 -160h-242v-200h282q154 0 154 -159t-154 -159h-480z" />
    <glyph glyph-name="Scaron" unicode="&#x160;" horiz-adv-x="1076" 
d="M228 63q-181 61 -181 218t142 157q21 0 167 -55t252.5 -55t106.5 90q0 59 -73 98.5t-203.5 82.5t-163.5 65q-152 101 -152 294.5t127 313.5q124 118 293 118t294 -37q234 -74 188.5 -218.5t-166.5 -134.5q-11 0 -120 41t-193.5 41t-84.5 -83q0 -53 71.5 -91.5t201.5 -84
t165 -69.5q154 -104 154 -309.5t-132 -325.5q-127 -117 -319.5 -117t-373.5 61zM377 1494l-129 210q-21 57 9.5 97t101.5 44t112 -61l80 -129l79 129q40 65 112 61t102.5 -43.5t9.5 -97.5l-130 -209q-58 -95 -172.5 -95t-174.5 94z" />
    <glyph glyph-name="Scaron" unicode="&#x161;" horiz-adv-x="1076" 
d="M228 63q-181 61 -181 218t142 157q21 0 167 -55t252.5 -55t106.5 90q0 59 -73 98.5t-203.5 82.5t-163.5 65q-152 101 -152 294.5t127 313.5q124 118 293 118t294 -37q234 -74 188.5 -218.5t-166.5 -134.5q-11 0 -120 41t-193.5 41t-84.5 -83q0 -53 71.5 -91.5t201.5 -84
t165 -69.5q154 -104 154 -309.5t-132 -325.5q-127 -117 -319.5 -117t-373.5 61zM377 1494l-129 210q-21 57 9.5 97t101.5 44t112 -61l80 -129l79 129q40 65 112 61t102.5 -43.5t9.5 -97.5l-130 -209q-58 -95 -172.5 -95t-174.5 94z" />
    <glyph glyph-name="Ydieresis" unicode="&#xff;" horiz-adv-x="1346" 
d="M697 926l222 292q97 128 216 128t159.5 -64.5t40.5 -116t-36 -123.5l-408 -532v-330q0 -174 -198 -174t-198 174v330l-400 532q-36 72 -36 123.5t40.5 116t159.5 64.5t216 -128zM448.5 1846q-89.5 0 -144 -59.5t-54.5 -150.5t54.5 -149.5t144 -58.5t143.5 59.5t54 149.5
t-54 149.5t-143.5 59.5zM948.5 1846q-89.5 0 -144 -59.5t-54.5 -150.5t54.5 -149.5t144 -58.5t143.5 59.5t54 149.5t-54 149.5t-143.5 59.5z" />
    <glyph glyph-name="Ydieresis" unicode="&#x178;" horiz-adv-x="1346" 
d="M697 926l222 292q97 128 216 128t159.5 -64.5t40.5 -116t-36 -123.5l-408 -532v-330q0 -174 -198 -174t-198 174v330l-400 532q-36 72 -36 123.5t40.5 116t159.5 64.5t216 -128zM448.5 1846q-89.5 0 -144 -59.5t-54.5 -150.5t54.5 -149.5t144 -58.5t143.5 59.5t54 149.5
t-54 149.5t-143.5 59.5zM948.5 1846q-89.5 0 -144 -59.5t-54.5 -150.5t54.5 -149.5t144 -58.5t143.5 59.5t54 149.5t-54 149.5t-143.5 59.5z" />
    <glyph glyph-name="Zcaron" unicode="&#x17d;" horiz-adv-x="1128" 
d="M576 1040h-396q-128 0 -128 158t126 158h778q148 0 148 -160q0 -134 -78 -222l-438 -650h382q128 0 128 -159t-126 -159h-778q-148 0 -148 162q0 136 78 222zM402 1494l-129 210q-21 57 9.5 97t101.5 44t112 -61l80 -129l79 129q40 65 112 61t102.5 -43.5t9.5 -97.5
l-130 -209q-58 -95 -172.5 -95t-174.5 94z" />
    <glyph glyph-name="Zcaron" unicode="&#x17e;" horiz-adv-x="1128" 
d="M576 1040h-396q-128 0 -128 158t126 158h778q148 0 148 -160q0 -134 -78 -222l-438 -650h382q128 0 128 -159t-126 -159h-778q-148 0 -148 162q0 136 78 222zM402 1494l-129 210q-21 57 9.5 97t101.5 44t112 -61l80 -129l79 129q40 65 112 61t102.5 -43.5t9.5 -97.5
l-130 -209q-58 -95 -172.5 -95t-174.5 94z" />
    <glyph glyph-name="florin" unicode="&#x192;" horiz-adv-x="1477" 
d="M983 1183q10 2 13 10q2 8 -3 15q-52 90 -239 111q-34 2 -68 2q-141 0 -261 -62q-173 -93 -199 -247q-2 -12 0 -20q5 -8 19 -3q357 124 738 194zM866 1359q-103 32 -211 32q-223 0 -399.5 -119t-260.5 -323q-52 -131 -52 -259q0 -213 115 -393t309 -263q129 -56 279 -56
q364 0 578 295q48 65 76 135l-118 66q-164 -369 -527 -374q-293 -10 -465.5 176t-172.5 439q0 206 110 370.5t298 240.5q131 53 274 53q78 0 167 -20zM1099 525q-362 -99 -715 -227l-9 -5q-5 -3 -5 -8q-10 -22 57 -53q51 -22 91 -33q123 -27 252 3q240 59 331 249
q18 36 20 50q4 13 -3 19.5t-19 4.5zM295 1043q-11 0 -11 14q0 15 16 46q55 108 163 156q-118 -74 -153 -204q-3 -12 -15 -12zM875 1197l-30 -9l-38 -8q40 13 38 43q0 10 -12 22q-46 48 -166 58q55 4 132 -15q99 -24 96 -67q0 -13 -20 -24zM842 250q129 73 176 201
q8 23 26 18q7 -2 9 -11q5 -7 0 -17q-62 -134 -211 -191zM1141 1186l-35 -7q-37 -11 -36 -43l4 -203l37 10q35 10 34 42zM902 1107q-10 12 -33 6l-36 -6l5 -239l36 7q35 9 35 41l-2 68l82 -64q12 -10 32 -5q36 10 34 42l-3 206l-36 -10q-36 -10 -36 -43l2 -66zM574 803
q24 30 23 69t-28 54q-6 3 -30 4.5t-37 5.5t-13 15q-2 24 70 18q27 -1 36 59q-54 11 -89.5 0.5t-56.5 -39.5q-23 -30 -23 -68t28 -49q6 -5 29.5 -6t37 -4t13.5 -14q1 -11 -24 -20.5t-82 1.5q-12 -16 -11.5 -43t33 -29.5t67.5 7.5t57 39zM697 929l15 47l17 -39zM751 883l7 -17
q10 -23 31.5 -17t30 21.5t8.5 26.5t-5 19l-78 146q-12 22 -36 16l-23 -6l-81 -216q-4 -12 -3.5 -22.5t9.5 -21t30.5 -5t29.5 33.5l6 21zM162 916l-36 -11q-35 -14 -34 -48l5 -217l34 10q37 13 36 45zM250 929q-10 12 -34 8l-36 -12l5 -248l36 10q35 10 35 41l-1 80l82 -75
q11 -11 31 -6q36 11 36 43l-5 224l-36 -10q-36 -10 -36 -42l3 -86zM388 620q39 11 38 52.5t-40 33.5q-132 -36 -237 -82l1 -34q1 -43 41 -32l49 21l5 -274l49 18q49 20 49 58l-5 225zM539 716q-26 26 -55.5 18t-38.5 -27t-9 -32.5t10 -29.5l102 -107l1 -88l1 -46l49 18
q48 18 47 56l-1 87l93 166q13 33 -2 53.5t-44.5 14t-51.5 -49.5l-48 -88zM905 624q47 14 75.5 56t28.5 89t-28 71.5t-70 16.5q-80 -17 -160 -45l8 -343l49 14q49 17 48 58l-1 70zM879 779q42 10 42.5 -29t-41.5 -51l-27 -7l-2 78zM1193 585q38 11 37 50l-1 41l-108 -31
l-1 52l60 16q38 11 38 51l-1 41l-98 -27l-2 49l70 19q38 11 38 51l-1 40q-103 -23 -205 -55l6 -339z" />
    <glyph glyph-name="circumflex" unicode="&#x2c6;" horiz-adv-x="722" 
d="M392 1232l129 -210q21 -57 -9.5 -97t-101.5 -44t-112 61l-80 129l-79 -129q-40 -65 -112 -61t-102.5 43.5t-9.5 97.5l130 209q58 95 172.5 95t174.5 -94z" />
    <glyph glyph-name="caron" unicode="&#x2c7;" horiz-adv-x="721" 
d="M44 974l-129 210q-21 57 9.5 97t101.5 44t112 -61l80 -129l79 129q40 65 112 61t102.5 -43.5t9.5 -97.5l-130 -209q-58 -95 -172.5 -95t-174.5 94z" />
    <glyph glyph-name="macron" unicode="&#xaf;" horiz-adv-x="878" 
d="M196 1057q-140 0 -140 134t140 134h498q140 0 140 -134t-140 -134h-498z" />
    <glyph glyph-name="macron" unicode="&#x2c9;" horiz-adv-x="878" 
d="M196 1057q-140 0 -140 134t140 134h498q140 0 140 -134t-140 -134h-498z" />
    <glyph glyph-name="ring" unicode="&#x2da;" horiz-adv-x="496" 
d="M340 1147.5q0 -40.5 -25 -67.5t-65 -27t-65 26.5t-25 67.5t25 68t65 27t65 -27t25 -67.5zM250.5 1357q-89.5 0 -144 -59.5t-54.5 -150.5t54.5 -149.5t144 -58.5t143.5 59.5t54 149.5t-54 149.5t-143.5 59.5z" />
    <glyph glyph-name="tilde" unicode="&#x2dc;" horiz-adv-x="879" 
d="M166 1033q-110 -50 -120 94t158.5 204t250.5 -20t249 20q110 50 120 -94t-158.5 -204t-250.5 20t-249 -20z" />
    <glyph glyph-name="emdash" unicode="&#x2014;" horiz-adv-x="1418" 
d="M-4 515q-160 0 -160 159t160 159h998q160 0 160 -159t-160 -159h-998z" />
    <glyph glyph-name="quoteleft" unicode="&#x2018;" horiz-adv-x="483" 
d="M158.5 811.5q-67.5 1.5 -74.5 55t41 71.5l22 19q-97 48 -102 164t49 175.5t142.5 60t144 -59.5t45.5 -199t-105 -213.5t-162.5 -73z" />
    <glyph glyph-name="quoteright" unicode="&#x2019;" horiz-adv-x="483" 
d="M311.5 1354.5q67.5 -1.5 74.5 -55t-41 -71.5l-22 -19q97 -48 102 -164t-49 -175.5t-142.5 -60t-144 59.5t-45.5 199t105 213.5t162.5 73z" />
    <glyph glyph-name="quotesinglbase" unicode="&#x201a;" horiz-adv-x="483" 
d="M158.5 -121.5q-67.5 1.5 -74.5 55t41 71.5l22 19q-97 48 -102 164t49 175.5t142.5 60t144 -59.5t45.5 -199t-105 -213.5t-162.5 -73z" />
    <glyph glyph-name="quotedblleft" unicode="&#x201c;" horiz-adv-x="953" 
d="M158.5 811.5q-67.5 1.5 -74.5 55t41 71.5l22 19q-97 48 -102 164t49 175.5t142.5 60t144 -59.5t45.5 -199t-105 -213.5t-162.5 -73zM658.5 811.5q-67.5 1.5 -74.5 55t41 71.5l22 19q-97 48 -102 164t49 175.5t142.5 60t144 -59.5t45.5 -199t-105 -213.5t-162.5 -73z" />
    <glyph glyph-name="quotedblright" unicode="&#x201d;" horiz-adv-x="953" 
d="M311.5 1354.5q67.5 -1.5 74.5 -55t-41 -71.5l-22 -19q97 -48 102 -164t-49 -175.5t-142.5 -60t-144 59.5t-45.5 199t105 213.5t162.5 73zM811.5 1354.5q67.5 -1.5 74.5 -55t-41 -71.5l-22 -19q97 -48 102 -164t-49 -175.5t-142.5 -60t-144 59.5t-45.5 199t105 213.5
t162.5 73z" />
    <glyph glyph-name="quotedblbase" unicode="&#x201e;" horiz-adv-x="983" 
d="M158.5 -121.5q-67.5 1.5 -74.5 55t41 71.5l22 19q-97 48 -102 164t49 175.5t142.5 60t144 -59.5t45.5 -199t-105 -213.5t-162.5 -73zM658.5 -121.5q-67.5 1.5 -74.5 55t41 71.5l22 19q-97 48 -102 164t49 175.5t142.5 60t144 -59.5t45.5 -199t-105 -213.5t-162.5 -73z
" />
    <glyph glyph-name="dagger" unicode="&#x2020;" horiz-adv-x="1604" 
d="M938 1429q206 -88 329.5 -274t123.5 -409q0 -152 -59 -290q-85 -206 -272 -329t-412 -123q-149 0 -288 58q-206 84 -329.5 271.5t-123.5 412.5q0 153 58 288q88 206 274 329.5t409 123.5q154 0 290 -58zM983 1243q10 2 13 10q2 8 -3 15q-52 90 -239 111q-34 2 -68 2
q-141 0 -261 -62q-173 -93 -199 -247q-2 -12 0 -20q5 -8 19 -3q357 124 738 194zM866 1419q-103 32 -211 32q-223 0 -399.5 -119t-260.5 -323q-52 -131 -52 -259q0 -213 115 -393t309 -263q129 -56 279 -56q364 0 578 295q48 65 76 135l-118 66q-164 -369 -527 -374
q-293 -10 -465.5 176t-172.5 439q0 206 110 370.5t298 240.5q131 53 274 53q78 0 167 -20zM1099 585q-362 -99 -715 -227l-9 -5q-5 -3 -5 -8q-10 -22 57 -53q51 -22 91 -33q123 -27 252 3q240 59 331 249q18 36 20 50q4 13 -3 19.5t-19 4.5zM295 1103q-11 0 -11 14
q0 15 16 46q55 108 163 156q-118 -74 -153 -204q-3 -12 -15 -12zM875 1257l-30 -9l-38 -8q40 13 38 43q0 10 -12 22q-46 48 -166 58q55 4 132 -15q99 -24 96 -67q0 -13 -20 -24zM842 310q129 73 176 201q8 23 26 18q7 -2 9 -11q5 -7 0 -17q-62 -134 -211 -191zM1144 1246
l-35 -7q-37 -11 -36 -43l4 -203l37 10q35 10 34 42zM905 1167q-10 12 -33 6l-36 -6l5 -239l36 7q35 9 35 41l-2 68l82 -64q12 -10 32 -5q36 10 34 42l-3 206l-36 -10q-36 -10 -36 -43l2 -66zM577 863q24 30 23 69t-28 54q-6 3 -30 4.5t-37 5.5t-13 15q-2 24 70 18
q27 -1 36 59q-54 11 -89.5 0.5t-56.5 -39.5q-23 -30 -23 -68t28 -49q6 -5 29.5 -6t37 -4t13.5 -14q1 -11 -24 -20.5t-82 1.5q-12 -16 -11.5 -43t33 -29.5t67.5 7.5t57 39zM700 989l15 47l17 -39zM754 943l7 -17q10 -23 31.5 -17t30 21.5t8.5 26.5t-5 19l-78 146
q-12 22 -36 16l-23 -6l-81 -216q-4 -12 -3.5 -22.5t9.5 -21t30.5 -5t29.5 33.5l6 21zM165 976l-36 -11q-35 -14 -34 -48l5 -217l34 10q37 13 36 45zM253 989q-10 12 -34 8l-36 -12l5 -248l36 10q35 10 35 41l-1 80l82 -75q11 -11 31 -6q36 11 36 43l-5 224l-36 -10
q-36 -10 -36 -42l3 -86zM388 680q39 11 38 52.5t-40 33.5q-132 -36 -237 -82l1 -34q1 -43 41 -32l49 21l5 -274l49 18q49 20 49 58l-5 225zM539 776q-26 26 -55.5 18t-38.5 -27t-9 -32.5t10 -29.5l102 -107l1 -88l1 -46l49 18q48 18 47 56l-1 87l93 166q13 33 -2 53.5
t-44.5 14t-51.5 -49.5l-48 -88zM905 684q47 14 75.5 56t28.5 89t-28 71.5t-70 16.5q-80 -17 -160 -45l8 -343l49 14q49 17 48 58l-1 70zM879 839q42 10 42.5 -29t-41.5 -51l-27 -7l-2 78zM1193 645q38 11 37 50l-1 41l-108 -31l-1 52l60 16q38 11 38 51l-1 41l-98 -27l-2 49
l70 19q38 11 38 51l-1 40q-103 -23 -205 -55l6 -339z" />
    <glyph glyph-name="daggerdbl" unicode="&#x2021;" horiz-adv-x="1477" 
d="M983 1183q10 2 13 10q2 8 -3 15q-52 90 -239 111q-34 2 -68 2q-141 0 -261 -62q-173 -93 -199 -247q-2 -12 0 -20q5 -8 19 -3q357 124 738 194zM866 1359q-103 32 -211 32q-223 0 -399.5 -119t-260.5 -323q-52 -131 -52 -259q0 -213 115 -393t309 -263q129 -56 279 -56
q364 0 578 295q48 65 76 135l-118 66q-164 -369 -527 -374q-293 -10 -465.5 176t-172.5 439q0 206 110 370.5t298 240.5q131 53 274 53q78 0 167 -20zM1099 525q-362 -99 -715 -227l-9 -5q-5 -3 -5 -8q-10 -22 57 -53q51 -22 91 -33q123 -27 252 3q240 59 331 249
q18 36 20 50q4 13 -3 19.5t-19 4.5zM295 1043q-11 0 -11 14q0 15 16 46q55 108 163 156q-118 -74 -153 -204q-3 -12 -15 -12zM875 1197l-30 -9l-38 -8q40 13 38 43q0 10 -12 22q-46 48 -166 58q55 4 132 -15q99 -24 96 -67q0 -13 -20 -24zM842 250q129 73 176 201
q8 23 26 18q7 -2 9 -11q5 -7 0 -17q-62 -134 -211 -191zM1141 1186l-35 -7q-37 -11 -36 -43l4 -203l37 10q35 10 34 42zM902 1107q-10 12 -33 6l-36 -6l5 -239l36 7q35 9 35 41l-2 68l82 -64q12 -10 32 -5q36 10 34 42l-3 206l-36 -10q-36 -10 -36 -43l2 -66zM574 803
q24 30 23 69t-28 54q-6 3 -30 4.5t-37 5.5t-13 15q-2 24 70 18q27 -1 36 59q-54 11 -89.5 0.5t-56.5 -39.5q-23 -30 -23 -68t28 -49q6 -5 29.5 -6t37 -4t13.5 -14q1 -11 -24 -20.5t-82 1.5q-12 -16 -11.5 -43t33 -29.5t67.5 7.5t57 39zM697 929l15 47l17 -39zM751 883l7 -17
q10 -23 31.5 -17t30 21.5t8.5 26.5t-5 19l-78 146q-12 22 -36 16l-23 -6l-81 -216q-4 -12 -3.5 -22.5t9.5 -21t30.5 -5t29.5 33.5l6 21zM162 916l-36 -11q-35 -14 -34 -48l5 -217l34 10q37 13 36 45zM250 929q-10 12 -34 8l-36 -12l5 -248l36 10q35 10 35 41l-1 80l82 -75
q11 -11 31 -6q36 11 36 43l-5 224l-36 -10q-36 -10 -36 -42l3 -86zM388 620q39 11 38 52.5t-40 33.5q-132 -36 -237 -82l1 -34q1 -43 41 -32l49 21l5 -274l49 18q49 20 49 58l-5 225zM539 716q-26 26 -55.5 18t-38.5 -27t-9 -32.5t10 -29.5l102 -107l1 -88l1 -46l49 18
q48 18 47 56l-1 87l93 166q13 33 -2 53.5t-44.5 14t-51.5 -49.5l-48 -88zM905 624q47 14 75.5 56t28.5 89t-28 71.5t-70 16.5q-80 -17 -160 -45l8 -343l49 14q49 17 48 58l-1 70zM879 779q42 10 42.5 -29t-41.5 -51l-27 -7l-2 78zM1193 585q38 11 37 50l-1 41l-108 -31
l-1 52l60 16q38 11 38 51l-1 41l-98 -27l-2 49l70 19q38 11 38 51l-1 40q-103 -23 -205 -55l6 -339z" />
    <glyph glyph-name="bullet" unicode="&#xb7;" horiz-adv-x="620" 
d="M725.5 1024q-124.5 0 -200 -78.5t-75.5 -198t75.5 -196.5t200 -77t199.5 78t75 197t-75 197t-199.5 78z" />
    <glyph glyph-name="bullet" unicode="&#x2022;" horiz-adv-x="620" 
d="M725.5 1024q-124.5 0 -200 -78.5t-75.5 -198t75.5 -196.5t200 -77t199.5 78t75 197t-75 197t-199.5 78z" />
    <glyph glyph-name="ellipsis" unicode="&#x2026;" horiz-adv-x="1686" 
d="M258.5 423q-89.5 0 -144 -59.5t-54.5 -150.5t54.5 -149.5t144 -58.5t143.5 59.5t54 149.5t-54 149.5t-143.5 59.5zM868.5 423q-89.5 0 -144 -59.5t-54.5 -150.5t54.5 -149.5t144 -58.5t143.5 59.5t54 149.5t-54 149.5t-143.5 59.5zM1478.5 423q-89.5 0 -144 -59.5
t-54.5 -150.5t54.5 -149.5t144 -58.5t143.5 59.5t54 149.5t-54 149.5t-143.5 59.5z" />
    <glyph glyph-name="perthousand" unicode="&#x2030;" horiz-adv-x="2726" 
d="M104 8q-75 -157 -231 -82t-81 232l550 1135q75 157 231 82t80 -232zM1017.5 22q-105.5 -111 -268 -111t-267.5 110.5t-105 290t104 291t269 111.5t269 -111.5t104 -290.5t-105.5 -290zM752 466q-55 0 -88.5 -40.5t-33.5 -102t33.5 -101.5t88.5 -39.5t88.5 40.5
t33.5 101.5t-33.5 101.5t-88.5 40zM-42.5 692q-105.5 -111 -268 -111t-267.5 110.5t-105 290t104 291t269 111.5t269 -111.5t104 -290.5t-105.5 -290zM-308 1136q-55 0 -88.5 -40.5t-33.5 -102t33.5 -101.5t88.5 -39.5t88.5 40.5t33.5 101.5t-33.5 101.5t-88.5 40z
M1867.5 22q-105.5 -111 -268 -111t-267.5 110.5t-105 290t104 291t269 111.5t269 -111.5t104 -290.5t-105.5 -290zM1602 466q-55 0 -88.5 -40.5t-33.5 -102t33.5 -101.5t88.5 -39.5t88.5 40.5t33.5 101.5t-33.5 101.5t-88.5 40z" />
    <glyph glyph-name="guilsinglleft" unicode="&#x2039;" horiz-adv-x="673" 
d="M167 648l301 235q79 34 138 5.5t67 -98.5t-103 -151l-206 -165l206 -163q111 -81 103 -151t-67 -99t-138 6l-301 246q-97 85 -97 168t97 167z" />
    <glyph glyph-name="guilsinglright" unicode="&#x203a;" horiz-adv-x="674" 
d="M577 300l-301 -235q-79 -34 -138.5 -5.5t-67.5 98.5t103 151l206 165l-206 163q-111 81 -103 151t67 99t139 -6l301 -246q96 -85 96 -168t-96 -167z" />
    <glyph glyph-name="trademark" unicode="&#x2122;" horiz-adv-x="1569" 
d="M418 1210v-508q0 -103 -117 -103t-117 103v508h-118q-95 0 -95 94t95 94h471q95 0 95 -94t-95 -94h-119zM1080 1152l164 198q40 48 109 48q117 0 117 -103v-592q0 -103 -117 -103t-117 103v326l-156 -183l-156 182v-325q0 -103 -117 -103t-117 103v592q0 105 117 103
q67 -1 108 -48z" />
    <glyph glyph-name="periodcentered" unicode="&#x2219;" horiz-adv-x="496" 
d="M258.5 423q-89.5 0 -144 -59.5t-54.5 -150.5t54.5 -149.5t144 -58.5t143.5 59.5t54 149.5t-54 149.5t-143.5 59.5z" />
    </font>
</defs>
</svg>
